<svg width="17" height="16" viewBox="0 0 17 16" fill="none" xmlns="http://www.w3.org/2000/svg">
<g clip-path="url(#clip0_4_5021)">
<path d="M5.16683 16.0004C5.90321 16.0004 6.50016 15.4034 6.50016 14.6671C6.50016 13.9307 5.90321 13.3337 5.16683 13.3337C4.43045 13.3337 3.8335 13.9307 3.8335 14.6671C3.8335 15.4034 4.43045 16.0004 5.16683 16.0004Z" fill="white"/>
<path d="M11.8333 16.0004C12.5697 16.0004 13.1667 15.4034 13.1667 14.6671C13.1667 13.9307 12.5697 13.3337 11.8333 13.3337C11.097 13.3337 10.5 13.9307 10.5 14.6671C10.5 15.4034 11.097 16.0004 11.8333 16.0004Z" fill="white"/>
<path d="M15.8332 2H14.4998V0.666667C14.4998 0.489856 14.4296 0.320286 14.3046 0.195262C14.1795 0.0702379 14.01 0 13.8332 0C13.6564 0 13.4868 0.0702379 13.3618 0.195262C13.2367 0.320286 13.1665 0.489856 13.1665 0.666667V2H11.8332C11.6564 2 11.4868 2.07024 11.3618 2.19526C11.2367 2.32029 11.1665 2.48986 11.1665 2.66667C11.1665 2.84348 11.2367 3.01305 11.3618 3.13807C11.4868 3.2631 11.6564 3.33333 11.8332 3.33333H13.1665V4.66667C13.1665 4.84348 13.2367 5.01305 13.3618 5.13807C13.4868 5.2631 13.6564 5.33333 13.8332 5.33333C14.01 5.33333 14.1795 5.2631 14.3046 5.13807C14.4296 5.01305 14.4998 4.84348 14.4998 4.66667V3.33333H15.8332C16.01 3.33333 16.1795 3.2631 16.3046 3.13807C16.4296 3.01305 16.4998 2.84348 16.4998 2.66667C16.4998 2.48986 16.4296 2.32029 16.3046 2.19526C16.1795 2.07024 16.01 2 15.8332 2Z" fill="white"/>
<path d="M15.014 6.484C14.9278 6.46787 14.8393 6.46901 14.7535 6.48735C14.6678 6.5057 14.5865 6.54088 14.5144 6.59086C14.4424 6.64084 14.381 6.70463 14.3337 6.77852C14.2865 6.85242 14.2544 6.93495 14.2393 7.02133C14.1562 7.48277 13.9136 7.90033 13.5539 8.20106C13.1941 8.5018 12.7402 8.6666 12.2713 8.66667H4.112L3.48533 3.33333H9.16667C9.34348 3.33333 9.51305 3.2631 9.63807 3.13807C9.7631 3.01305 9.83333 2.84348 9.83333 2.66667C9.83333 2.48986 9.7631 2.32029 9.63807 2.19526C9.51305 2.07024 9.34348 2 9.16667 2H3.328L3.3 1.76533C3.24255 1.27907 3.00871 0.830769 2.64279 0.505403C2.27688 0.180036 1.80432 0.000208558 1.31467 0L1.16667 0C0.989856 0 0.820286 0.0702379 0.695262 0.195262C0.570238 0.320286 0.5 0.489856 0.5 0.666667C0.5 0.843478 0.570238 1.01305 0.695262 1.13807C0.820286 1.2631 0.989856 1.33333 1.16667 1.33333H1.31467C1.47796 1.33335 1.63556 1.3933 1.75758 1.50181C1.8796 1.61032 1.95756 1.75983 1.97667 1.922L2.894 9.722C2.98923 10.5332 3.37899 11.2812 3.98927 11.824C4.59956 12.3668 5.3879 12.6667 6.20467 12.6667H13.1667C13.3435 12.6667 13.513 12.5964 13.6381 12.4714C13.7631 12.3464 13.8333 12.1768 13.8333 12C13.8333 11.8232 13.7631 11.6536 13.6381 11.5286C13.513 11.4036 13.3435 11.3333 13.1667 11.3333H6.20467C5.79101 11.3334 5.38751 11.2052 5.04974 10.9664C4.71197 10.7276 4.45655 10.39 4.31867 10H12.2713C13.0528 10.0001 13.8094 9.72561 14.409 9.22455C15.0087 8.72348 15.4132 8.02768 15.552 7.25867C15.5676 7.17247 15.566 7.08405 15.5474 6.99847C15.5288 6.91288 15.4935 6.83179 15.4435 6.75985C15.3936 6.68791 15.3299 6.62652 15.2562 6.57919C15.1825 6.53185 15.1002 6.49951 15.014 6.484Z" fill="white"/>
</g>
<defs>
<clipPath id="clip0_4_5021">
<rect width="16" height="16" fill="white" transform="translate(0.5)"/>
</clipPath>
</defs>
</svg>
