<svg width="36" height="36" viewBox="0 0 36 36" fill="none" xmlns="http://www.w3.org/2000/svg">
<g clip-path="url(#clip0_4_87)">
<path d="M24.9607 0.922789C24.8863 0.839664 22.2066 0.955601 19.8748 3.48654C17.5429 6.01529 17.9016 8.91591 17.9541 8.99029C18.0066 9.06466 21.2791 9.1806 23.3682 6.23841C25.4573 3.29623 25.0351 1.0081 24.9607 0.922789ZM32.2101 26.5887C32.1051 26.3787 27.1241 23.8893 27.5879 19.1031C28.0516 14.3147 31.252 13.0022 31.3023 12.86C31.3526 12.7178 29.9963 11.1318 28.5591 10.329C27.5039 9.76303 26.3361 9.43874 25.1401 9.37966C24.9038 9.3731 24.0835 9.17185 22.397 9.63341C21.2857 9.93747 18.781 10.9218 18.092 10.9612C17.4007 11.0006 15.3445 9.81935 13.1329 9.50654C11.7176 9.2331 10.217 9.7931 9.14289 10.224C8.07102 10.6528 6.03227 11.8734 4.60602 15.1175C3.17977 18.3593 3.92571 23.4956 4.45946 25.0925C4.99321 26.6872 5.82664 29.3012 7.24414 31.2087C8.50414 33.3612 10.1754 34.8553 10.8732 35.3628C11.571 35.8703 13.5398 36.2072 14.9048 35.5093C16.0029 34.8356 17.9848 34.4484 18.7679 34.4768C19.5488 34.5053 21.0888 34.8137 22.666 35.6559C23.9151 36.0868 25.0963 35.9075 26.2798 35.4262C27.4632 34.9428 29.176 33.1097 31.1754 29.3931C31.9345 27.665 32.2801 26.7309 32.2101 26.5887Z" fill="black"/>
<path d="M24.9607 0.922789C24.8863 0.839664 22.2066 0.955601 19.8748 3.48654C17.5429 6.01529 17.9016 8.91591 17.9541 8.99029C18.0066 9.06466 21.2791 9.1806 23.3682 6.23841C25.4573 3.29623 25.0351 1.0081 24.9607 0.922789ZM32.2101 26.5887C32.1051 26.3787 27.1241 23.8893 27.5879 19.1031C28.0516 14.3147 31.252 13.0022 31.3023 12.86C31.3526 12.7178 29.9963 11.1318 28.5591 10.329C27.5039 9.76303 26.3361 9.43874 25.1401 9.37966C24.9038 9.3731 24.0835 9.17185 22.397 9.63341C21.2857 9.93747 18.781 10.9218 18.092 10.9612C17.4007 11.0006 15.3445 9.81935 13.1329 9.50654C11.7176 9.2331 10.217 9.7931 9.14289 10.224C8.07102 10.6528 6.03227 11.8734 4.60602 15.1175C3.17977 18.3593 3.92571 23.4956 4.45946 25.0925C4.99321 26.6872 5.82664 29.3012 7.24414 31.2087C8.50414 33.3612 10.1754 34.8553 10.8732 35.3628C11.571 35.8703 13.5398 36.2072 14.9048 35.5093C16.0029 34.8356 17.9848 34.4484 18.7679 34.4768C19.5488 34.5053 21.0888 34.8137 22.666 35.6559C23.9151 36.0868 25.0963 35.9075 26.2798 35.4262C27.4632 34.9428 29.176 33.1097 31.1754 29.3931C31.9345 27.665 32.2801 26.7309 32.2101 26.5887Z" fill="black"/>
</g>
<defs>
<clipPath id="clip0_4_87">
<rect width="35" height="35" fill="white" transform="translate(0.5 0.905273)"/>
</clipPath>
</defs>
</svg>
