<svg width="20" height="20" viewBox="0 0 20 20" fill="none" xmlns="http://www.w3.org/2000/svg">
<path d="M0.75 0.819763L2.83 1.17976L3.793 12.6528C3.87 13.5898 4.653 14.3088 5.593 14.3058H16.502C17.399 14.3078 18.16 13.6478 18.287 12.7598L19.236 6.20176C19.342 5.46876 18.833 4.78876 18.101 4.68276C18.037 4.67376 3.164 4.66876 3.164 4.66876" stroke="#525750" stroke-width="1.5" stroke-linecap="round" stroke-linejoin="round"/>
<path d="M12.125 8.36469H14.898" stroke="#525750" stroke-width="1.5" stroke-linecap="round" stroke-linejoin="round"/>
<path fill-rule="evenodd" clip-rule="evenodd" d="M5.15435 17.7723C5.45535 17.7723 5.69835 18.0163 5.69835 18.3163C5.69835 18.6173 5.45535 18.8613 5.15435 18.8613C4.85335 18.8613 4.61035 18.6173 4.61035 18.3163C4.61035 18.0163 4.85335 17.7723 5.15435 17.7723Z" stroke="#525750" stroke-width="1.5" stroke-linecap="round" stroke-linejoin="round"/>
<path fill-rule="evenodd" clip-rule="evenodd" d="M16.4346 17.7723C16.7356 17.7723 16.9796 18.0163 16.9796 18.3163C16.9796 18.6173 16.7356 18.8613 16.4346 18.8613C16.1336 18.8613 15.8906 18.6173 15.8906 18.3163C15.8906 18.0163 16.1336 17.7723 16.4346 17.7723Z" stroke="#525750" stroke-width="1.5" stroke-linecap="round" stroke-linejoin="round"/>
</svg>
