<svg width="58" height="45" viewBox="0 0 58 45" fill="none" xmlns="http://www.w3.org/2000/svg">
<circle cx="23.6665" cy="6.5" r="3.75" stroke="black" stroke-opacity="0.55" stroke-width="1.5"/>
<circle cx="34.6665" cy="17.5" r="3.75" stroke="black" stroke-opacity="0.55" stroke-width="1.5"/>
<rect x="30.9165" y="2.75" width="7.5" height="7.5" rx="2.25" stroke="black" stroke-opacity="0.55" stroke-width="1.5"/>
<rect x="19.9165" y="13.75" width="7.5" height="7.5" rx="2.25" stroke="black" stroke-opacity="0.55" stroke-width="1.5"/>
<path d="M8.17109 36.036H7.04309C6.92309 35.46 6.71509 35.04 6.41909 34.776C6.03509 34.424 5.47509 34.248 4.73909 34.248C3.84309 34.248 3.15109 34.6 2.66309 35.304C2.23909 35.92 2.02709 36.728 2.02709 37.728C2.02709 38.856 2.31109 39.732 2.87909 40.356C3.38309 40.892 4.03109 41.16 4.82309 41.16C5.79109 41.16 6.45909 40.804 6.82709 40.092C6.99509 39.764 7.12709 39.328 7.22309 38.784H8.35109C8.08709 41.016 6.91509 42.132 4.83509 42.132C3.71509 42.132 2.83109 41.804 2.18309 41.148C1.35109 40.308 0.935094 39.18 0.935094 37.764C0.935094 36.388 1.33509 35.256 2.13509 34.368C2.79109 33.64 3.69509 33.276 4.84709 33.276C6.71909 33.276 7.82709 34.196 8.17109 36.036ZM15.1789 41.172V41.964C14.9069 42.06 14.6949 42.108 14.5429 42.108C13.9029 42.108 13.5549 41.816 13.4989 41.232C13.0589 41.832 12.3589 42.132 11.3989 42.132C10.7349 42.132 10.2189 41.948 9.85091 41.58C9.53091 41.26 9.37091 40.848 9.37091 40.344C9.37091 39.768 9.57491 39.324 9.98291 39.012C10.2149 38.836 10.6989 38.664 11.4349 38.496L13.4509 38.04L13.4629 37.524C13.4629 36.908 12.9989 36.6 12.0709 36.6C11.1829 36.6 10.7069 36.96 10.6429 37.68H9.64691C9.67091 37.136 9.80691 36.72 10.0549 36.432C10.4789 35.944 11.1669 35.7 12.1189 35.7C13.6629 35.7 14.4349 36.26 14.4349 37.38V40.824C14.4349 41.128 14.5669 41.28 14.8309 41.28C14.8629 41.28 14.9469 41.256 15.0829 41.208C15.1309 41.192 15.1629 41.18 15.1789 41.172ZM13.4629 38.844L11.8789 39.252C11.3109 39.396 10.9189 39.544 10.7029 39.696C10.4949 39.848 10.3909 40.06 10.3909 40.332C10.3909 40.964 10.7989 41.28 11.6149 41.28C12.1909 41.28 12.6789 41.092 13.0789 40.716C13.3349 40.484 13.4629 40.22 13.4629 39.924V38.844ZM18.6697 35.832V36.624H17.4097V40.728C17.4097 40.872 17.4577 40.996 17.5537 41.1C17.6577 41.196 17.7897 41.244 17.9497 41.244C18.1017 41.244 18.3337 41.208 18.6457 41.136L18.7537 42C18.2577 42.088 17.8817 42.132 17.6257 42.132C16.8337 42.132 16.4377 41.808 16.4377 41.16V36.624H15.5977V35.832H16.4377V34.572L17.4097 34.128V35.832H18.6697ZM25.0282 39.204H20.4802C20.4882 39.732 20.6002 40.152 20.8162 40.464C21.1602 40.968 21.6562 41.22 22.3042 41.22C23.1042 41.22 23.6442 40.84 23.9242 40.08H24.9082C24.7802 40.728 24.4842 41.232 24.0202 41.592C23.5562 41.952 22.9722 42.132 22.2682 42.132C21.3322 42.132 20.6162 41.812 20.1202 41.172C19.6802 40.612 19.4602 39.872 19.4602 38.952C19.4602 37.888 19.7482 37.06 20.3242 36.468C20.8282 35.956 21.4802 35.7 22.2802 35.7C22.8642 35.7 23.3762 35.84 23.8162 36.12C24.2642 36.4 24.5842 36.784 24.7762 37.272C24.9442 37.688 25.0282 38.32 25.0282 39.168V39.204ZM23.9722 38.4C23.9722 37.864 23.8122 37.432 23.4922 37.104C23.1802 36.768 22.7762 36.6 22.2802 36.6C21.7762 36.6 21.3642 36.764 21.0442 37.092C20.7322 37.412 20.5562 37.848 20.5162 38.4H23.9722ZM30.391 35.832H31.303V40.992C31.303 42.328 31.087 43.256 30.655 43.776C30.223 44.304 29.515 44.568 28.531 44.568C27.763 44.568 27.163 44.384 26.731 44.016C26.347 43.688 26.131 43.252 26.083 42.708H27.091C27.139 43.028 27.259 43.264 27.451 43.416C27.731 43.632 28.107 43.74 28.579 43.74C29.219 43.74 29.675 43.548 29.947 43.164C30.179 42.836 30.295 42.276 30.295 41.484V41.088C29.783 41.784 29.167 42.132 28.447 42.132C27.743 42.132 27.147 41.868 26.659 41.34C26.139 40.772 25.879 39.996 25.879 39.012C25.879 37.956 26.151 37.116 26.695 36.492C27.175 35.964 27.779 35.7 28.507 35.7C29.291 35.7 29.919 36.052 30.391 36.756V35.832ZM28.615 36.6C28.087 36.6 27.667 36.812 27.355 37.236C27.051 37.652 26.899 38.224 26.899 38.952C26.899 39.712 27.075 40.292 27.427 40.692C27.723 41.044 28.123 41.22 28.627 41.22C29.155 41.22 29.563 41.02 29.851 40.62C30.147 40.22 30.295 39.664 30.295 38.952C30.295 38.168 30.127 37.568 29.791 37.152C29.495 36.784 29.103 36.6 28.615 36.6ZM35.3338 35.7C36.2618 35.7 36.9698 36.024 37.4578 36.672C37.8898 37.232 38.1058 37.992 38.1058 38.952C38.1058 40.024 37.8258 40.84 37.2658 41.4C36.7858 41.888 36.1378 42.132 35.3218 42.132C34.3778 42.132 33.6578 41.816 33.1618 41.184C32.7298 40.632 32.5138 39.888 32.5138 38.952C32.5138 37.864 32.7978 37.028 33.3658 36.444C33.8538 35.948 34.5098 35.7 35.3338 35.7ZM35.3338 36.6C34.7738 36.6 34.3338 36.812 34.0138 37.236C33.6938 37.652 33.5338 38.224 33.5338 38.952C33.5338 39.712 33.7138 40.292 34.0738 40.692C34.3858 41.044 34.8018 41.22 35.3218 41.22C35.8738 41.22 36.3018 41.02 36.6058 40.62C36.9178 40.22 37.0738 39.664 37.0738 38.952C37.0738 38.168 36.8978 37.568 36.5458 37.152C36.2418 36.784 35.8378 36.6 35.3338 36.6ZM39.4605 35.832H40.3725V36.96C40.7325 36.112 41.3005 35.688 42.0765 35.688C42.1725 35.688 42.2885 35.7 42.4245 35.724V36.732C41.7845 36.74 41.3445 36.832 41.1045 37.008C40.6645 37.328 40.4445 37.924 40.4445 38.796V42H39.4605V35.832ZM44.3223 35.832V42H43.3503V35.832H44.3223ZM43.8543 33.42C44.0223 33.42 44.1623 33.48 44.2743 33.6C44.3943 33.712 44.4543 33.848 44.4543 34.008C44.4543 34.176 44.3943 34.32 44.2743 34.44C44.1623 34.552 44.0223 34.608 43.8543 34.608C43.6943 34.608 43.5543 34.552 43.4343 34.44C43.3223 34.32 43.2663 34.176 43.2663 34.008C43.2663 33.848 43.3223 33.712 43.4343 33.6C43.5543 33.48 43.6943 33.42 43.8543 33.42ZM51.2196 39.204H46.6716C46.6796 39.732 46.7916 40.152 47.0076 40.464C47.3516 40.968 47.8476 41.22 48.4956 41.22C49.2956 41.22 49.8356 40.84 50.1156 40.08H51.0996C50.9716 40.728 50.6756 41.232 50.2116 41.592C49.7476 41.952 49.1636 42.132 48.4596 42.132C47.5236 42.132 46.8076 41.812 46.3116 41.172C45.8716 40.612 45.6516 39.872 45.6516 38.952C45.6516 37.888 45.9396 37.06 46.5156 36.468C47.0196 35.956 47.6716 35.7 48.4716 35.7C49.0556 35.7 49.5676 35.84 50.0076 36.12C50.4556 36.4 50.7756 36.784 50.9676 37.272C51.1356 37.688 51.2196 38.32 51.2196 39.168V39.204ZM50.1636 38.4C50.1636 37.864 50.0036 37.432 49.6836 37.104C49.3716 36.768 48.9676 36.6 48.4716 36.6C47.9676 36.6 47.5556 36.764 47.2356 37.092C46.9236 37.412 46.7476 37.848 46.7076 38.4H50.1636ZM56.9424 37.524H55.8624C55.8304 36.908 55.4184 36.6 54.6264 36.6C54.2184 36.6 53.8944 36.68 53.6544 36.84C53.4224 36.992 53.3064 37.2 53.3064 37.464C53.3064 37.864 53.6864 38.152 54.4464 38.328L55.3944 38.544C56.0104 38.688 56.4544 38.892 56.7264 39.156C56.9984 39.42 57.1344 39.78 57.1344 40.236C57.1344 40.82 56.9064 41.284 56.4504 41.628C55.9944 41.964 55.3784 42.132 54.6024 42.132C53.7544 42.132 53.1104 41.932 52.6704 41.532C52.3024 41.204 52.1064 40.768 52.0824 40.224H53.1984C53.2624 40.504 53.3504 40.708 53.4624 40.836C53.6784 41.092 54.0824 41.22 54.6744 41.22C55.1144 41.22 55.4624 41.14 55.7184 40.98C55.9824 40.812 56.1144 40.592 56.1144 40.32C56.1144 39.912 55.7984 39.632 55.1664 39.48L54.2424 39.264C53.5384 39.096 53.0464 38.896 52.7664 38.664C52.4464 38.4 52.2864 38.02 52.2864 37.524C52.2864 36.964 52.4984 36.52 52.9224 36.192C53.3544 35.864 53.9304 35.7 54.6504 35.7C55.4024 35.7 55.9864 35.888 56.4024 36.264C56.7624 36.592 56.9424 37.012 56.9424 37.524Z" fill="black" fill-opacity="0.55"/>
</svg>
