<svg width="24" height="25" viewBox="0 0 24 25" fill="none" xmlns="http://www.w3.org/2000/svg">
<g clip-path="url(#clip0_4_135)">
<path d="M24 18.4054C24 19.1127 23.719 19.791 23.219 20.2911C22.7189 20.7912 22.0406 21.0721 21.3333 21.0721H2.66667C1.95942 21.0721 1.28115 20.7912 0.781049 20.2911C0.280952 19.791 0 19.1127 0 18.4054V6.40544C0 5.69819 0.280952 5.01991 0.781049 4.51982C1.28115 4.01972 1.95942 3.73877 2.66667 3.73877H21.3333C22.0406 3.73877 22.7189 4.01972 23.219 4.51982C23.719 5.01991 24 5.69819 24 6.40544V18.4054Z" fill="#141414"/>
<path d="M0 9.07202H24V15.7387H0V9.07202Z" fill="#EEEEEE"/>
<path d="M21.3333 3.73877H2.66667C1.95942 3.73877 1.28115 4.01972 0.781049 4.51982C0.280952 5.01991 0 5.69819 0 6.40544L0 9.0721H24V6.40544C24 5.69819 23.719 5.01991 23.219 4.51982C22.7189 4.01972 22.0406 3.73877 21.3333 3.73877Z" fill="#CE1225"/>
<path d="M9.8335 14.78C9.8335 14.78 9.84416 14.9467 9.9895 15.03C9.9895 15.03 9.94816 15.1554 10.1042 15.228C10.2602 15.3007 10.8228 15.4154 11.8022 15.4154C12.7815 15.4154 13.3335 15.3114 13.4795 15.238C13.6255 15.1654 13.6355 14.9987 13.6355 14.9987C13.6355 14.9987 13.7915 14.9154 13.7815 14.8114C13.7708 14.7074 13.5628 14.5927 13.5628 14.5927C13.5628 14.5927 13.5108 14.4574 13.3648 14.4054C13.2188 14.3534 12.7502 14.6347 11.8542 14.5927C10.9582 14.5514 10.4482 14.4154 10.2815 14.426C10.1148 14.4367 10.0422 14.6034 10.0422 14.6034C10.0422 14.6034 9.85416 14.6867 9.8335 14.78Z" fill="#BF9300"/>
<path d="M9.94816 14.7701C9.93949 14.8321 10.0735 14.9681 10.0735 14.9681C10.0735 14.9681 10.0735 15.1241 10.2088 15.1661C10.3442 15.2081 10.8962 15.3121 11.7922 15.3014C12.6882 15.2907 13.3235 15.2387 13.3962 15.1761C13.4688 15.1134 13.5315 14.9781 13.5315 14.9781C13.5315 14.9781 13.6775 14.8741 13.6668 14.7907C13.6562 14.7074 13.4482 14.6554 13.4482 14.6554C13.4482 14.6554 13.3895 14.5301 13.3202 14.4781C13.2508 14.4261 12.8028 14.6861 11.8442 14.6861C10.9062 14.6861 10.3648 14.4567 10.2715 14.4674C10.1775 14.4781 10.1155 14.6547 10.1155 14.6547C10.1155 14.6547 9.95882 14.6974 9.94816 14.7701Z" fill="#EEEEEE"/>
<path d="M13.906 10.728C13.906 10.728 13.8854 10.2387 13.4374 10.3007C12.9894 10.3633 12.958 10.582 12.4787 10.634L12.38 10.6433C12.3001 10.4266 12.2559 10.1983 12.2494 9.96734C12.2494 9.65467 12.3434 9.51934 12.02 9.36334C11.6974 9.20734 11.6347 9.35267 11.6347 9.35267C11.6347 9.35267 11.3847 9.22734 11.27 9.32134C11.1554 9.41534 11.218 9.65467 11.27 9.582C11.322 9.50934 11.5307 9.71734 11.5307 9.71734C11.6014 10.0633 11.4007 10.438 11.2634 10.6467C11.216 10.642 11.178 10.64 11.1247 10.634C10.6454 10.582 10.614 10.3633 10.166 10.3007C9.71802 10.238 9.69735 10.728 9.69735 10.728L9.52002 14.5093L9.88469 14.228L9.88669 14.1833L10.6454 13.5093L10.772 13.3827L10.458 14.3007C10.458 14.3007 9.97869 14.2693 10.114 14.6547C10.114 14.6547 10.1867 14.436 10.312 14.4773C10.4374 14.5187 10.8014 14.6127 10.8014 14.6127L10.9267 14.8107L11.0827 14.6647L11.572 14.644C11.572 14.644 11.728 14.6853 11.718 14.8213C11.7467 14.7628 11.7554 14.6966 11.7427 14.6327L11.89 14.6227C11.8742 14.6897 11.8822 14.7602 11.9127 14.822C11.902 14.6867 12.0587 14.6447 12.0587 14.6447L12.548 14.6653L12.7047 14.8113L12.83 14.6133C12.83 14.6133 13.194 14.5193 13.3187 14.478C13.4434 14.4367 13.5167 14.6553 13.5167 14.6553C13.652 14.27 13.1727 14.3013 13.1727 14.3013L12.8734 13.426L12.9574 13.51L13.716 14.184L13.718 14.2287L14.0827 14.51L13.906 10.728ZM11.8347 13.02C11.0834 12.556 11.0214 11.3847 11.0214 11.3847C11.0214 11.3847 11.486 11.3607 11.8234 11.124C12.1274 11.394 12.646 11.3633 12.646 11.3633C12.646 11.3633 12.6107 12.5393 11.8347 13.02ZM13.552 10.5827L12.9167 11.1867L12.81 11.2293C12.7007 11.2333 12.1687 11.2347 11.8334 10.9367C11.4167 11.2287 10.844 11.2493 10.844 11.2493L10.7554 11.214L10.052 10.5827L9.86735 10.6587C9.87535 10.5833 9.91669 10.414 10.146 10.4473C10.522 10.5013 10.6774 10.708 11.0734 10.7493L11.1854 10.7607L11.146 10.8113C11.2074 10.8113 11.298 10.7933 11.3647 10.7787L11.44 10.786L11.406 10.9047C11.4594 10.8887 11.5367 10.8427 11.6 10.802L11.7734 10.8187L11.8127 10.8733L11.9447 10.8073L12.0334 10.7987C12.11 10.8433 12.2194 10.8833 12.2194 10.8833L12.24 10.7793C12.334 10.842 12.49 10.842 12.49 10.842C12.472 10.8273 12.454 10.79 12.4354 10.758L12.5314 10.748C12.9274 10.7067 13.082 10.5 13.4587 10.446C13.688 10.4133 13.7294 10.582 13.7374 10.6573L13.552 10.5827Z" fill="#BF9300"/>
<path d="M11.5835 12.9994L11.2082 14.426L10.5835 14.3014L11.2295 12.468L11.5835 12.9994ZM12.0495 12.9994L12.4242 14.426L13.0495 14.3014L12.4035 12.468L12.0495 12.9994Z" fill="#EEEEEE"/>
<path d="M11.1772 11.4993C11.1772 11.4993 11.2292 12.1033 11.4999 12.572V11.364C11.4999 11.364 11.3226 11.468 11.1772 11.4993ZM12.4792 11.52C12.4792 11.52 12.4272 12.124 12.1566 12.5927V11.3847C12.1559 11.3847 12.3332 11.4887 12.4792 11.52Z" fill="#BF9300"/>
<path d="M11.3018 9.45738C11.3018 9.45738 11.3744 9.38471 11.5831 9.53004C11.7184 9.62471 11.8384 9.69671 11.8384 9.69671C11.8384 9.69671 11.9238 9.60671 12.0491 9.62738C12.1744 9.64804 12.1044 9.82204 12.1251 10.186C12.1458 10.5507 12.2918 10.7067 12.2918 10.7067L12.1144 10.6027L12.1251 10.7174L11.9271 10.6234L11.8331 10.7587L11.7391 10.6127L11.5871 10.7054L11.5411 10.5814L11.3638 10.6754C11.3638 10.6754 11.6244 10.3527 11.6451 9.99804C11.6511 9.89204 11.6244 9.65404 11.6244 9.65404C11.6244 9.65404 11.4584 9.44671 11.3018 9.45738Z" fill="#EEEEEE"/>
<path d="M10.3645 14.8427C10.2452 14.9141 10.2919 14.9574 10.3645 14.9887C10.4372 15.0201 10.8745 15.0727 11.7605 15.0927C12.6665 15.1134 13.2292 15.0094 13.3019 14.9674C13.3745 14.9261 13.3852 14.8527 13.2605 14.8321C13.1352 14.8114 12.5105 14.9154 11.7499 14.9154C10.8125 14.9161 10.4165 14.8114 10.3645 14.8427Z" fill="#BF9300"/>
</g>
<defs>
<clipPath id="clip0_4_135">
<rect width="24" height="24" fill="white" transform="translate(0 0.405396)"/>
</clipPath>
</defs>
</svg>
