<svg width="33" height="33" viewBox="0 0 33 33" fill="none" xmlns="http://www.w3.org/2000/svg">
<path d="M32.5 16.9053C32.5 8.06877 25.3365 0.905273 16.5 0.905273C7.6635 0.905273 0.5 8.06865 0.5 16.9053C0.5 24.8913 6.351 31.5106 14 32.7109V21.5303H9.9375V16.9053H14V13.3803C14 9.37027 16.3888 7.15527 20.0434 7.15527C21.794 7.15527 23.625 7.46777 23.625 7.46777V11.4053H21.6075C19.6198 11.4053 19 12.6386 19 13.904V16.9053H23.4375L22.7281 21.5303H19V32.7109C26.649 31.5106 32.5 24.8914 32.5 16.9053Z" fill="#1877F2"/>
<path d="M22.7281 21.5303L23.4375 16.9053H19V13.904C19 12.6385 19.6199 11.4053 21.6075 11.4053H23.625V7.46777C23.625 7.46777 21.794 7.15527 20.0434 7.15527C16.3888 7.15527 14 9.37027 14 13.3803V16.9053H9.9375V21.5303H14V32.7109C14.827 32.8405 15.6629 32.9055 16.5 32.9053C17.3371 32.9055 18.173 32.8405 19 32.7109V21.5303H22.7281Z" fill="white"/>
</svg>
