<svg width="33" height="33" viewBox="0 0 33 33" fill="none" xmlns="http://www.w3.org/2000/svg">
<rect width="33" height="33" fill="#A6A6A6"/>
<g clip-path="url(#clip0_0_1)">
<rect width="390" height="844" transform="translate(-177 -612)" fill="white"/>
<path d="M32.1885 13.7716H30.8997V13.7052H16.4999V20.1051H25.5422C24.223 23.8307 20.6782 26.505 16.4999 26.505C11.1983 26.505 6.89994 22.2067 6.89994 16.9051C6.89994 11.6036 11.1983 7.30522 16.4999 7.30522C18.947 7.30522 21.1734 8.22841 22.8686 9.73639L27.3942 5.21083C24.5366 2.54766 20.7142 0.905273 16.4999 0.905273C7.66394 0.905273 0.5 8.06921 0.5 16.9051C0.5 25.741 7.66394 32.905 16.4999 32.905C25.3358 32.905 32.4997 25.741 32.4997 16.9051C32.4997 15.8323 32.3893 14.7851 32.1885 13.7716Z" fill="#FFC107"/>
<path d="M2.34521 9.458L7.60197 13.3132C9.02436 9.79159 12.4691 7.30522 16.5003 7.30522C18.9475 7.30522 21.1738 8.22841 22.869 9.73639L27.3946 5.21083C24.537 2.54766 20.7147 0.905273 16.5003 0.905273C10.3547 0.905273 5.02519 4.37484 2.34521 9.458Z" fill="#FF3D00"/>
<path d="M16.5 32.9054C20.6327 32.9054 24.3879 31.3238 27.2271 28.7518L22.2751 24.5614C20.6148 25.8241 18.5859 26.5071 16.5 26.5054C12.3384 26.5054 8.80485 23.8518 7.47366 20.1487L2.2561 24.1686C4.90408 29.3502 10.2816 32.9054 16.5 32.9054Z" fill="#4CAF50"/>
<path d="M32.1887 13.772H30.8999V13.7056H16.5V20.1055H25.5423C24.9113 21.8786 23.7746 23.428 22.2727 24.5623L22.2751 24.5607L27.2271 28.751C26.8767 29.0694 32.4999 24.9055 32.4999 16.9055C32.4999 15.8327 32.3895 14.7856 32.1887 13.772Z" fill="#1976D2"/>
</g>
<defs>
<clipPath id="clip0_0_1">
<rect width="390" height="844" fill="white" transform="translate(-177 -612)"/>
</clipPath>
</defs>
</svg>
