<svg width="58" height="43" viewBox="0 0 58 43" fill="none" xmlns="http://www.w3.org/2000/svg">
<path d="M30.9933 3.19943L30.9936 3.19962L36.7535 7.22955C36.7535 7.22957 36.7536 7.2296 36.7536 7.22962C37.2228 7.55809 37.6671 8.09665 37.9945 8.72383C38.3219 9.35104 38.5102 10.0242 38.5102 10.5999V17.3799C38.5102 19.6538 36.6641 21.4999 34.3902 21.4999H23.6102C21.3378 21.4999 19.4902 19.6452 19.4902 17.3699V10.4699C19.4902 9.9355 19.6606 9.29642 19.9588 8.6908C20.2569 8.08545 20.6613 7.55682 21.0878 7.22419L21.0879 7.2241L26.0965 3.31518C26.0967 3.31501 26.0969 3.31484 26.0971 3.31467C27.434 2.27937 29.603 2.22535 30.9933 3.19943ZM29.0002 19.2499C29.6864 19.2499 30.2502 18.6861 30.2502 17.9999V14.9999C30.2502 14.3138 29.6864 13.7499 29.0002 13.7499C28.3141 13.7499 27.7502 14.3138 27.7502 14.9999V17.9999C27.7502 18.6861 28.3141 19.2499 29.0002 19.2499Z" fill="#0CB502" stroke="#0CB502"/>
<path d="M18.5251 38.1H15.1171V42H13.3531V33.408H15.1171V36.624H18.5131V33.408H20.2891V42H18.5251V38.1ZM24.7004 35.508C25.7484 35.508 26.5524 35.844 27.1124 36.516C27.6004 37.092 27.8444 37.86 27.8444 38.82C27.8444 39.924 27.5284 40.772 26.8964 41.364C26.3444 41.876 25.6124 42.132 24.7004 42.132C23.6524 42.132 22.8484 41.8 22.2884 41.136C21.8004 40.552 21.5564 39.78 21.5564 38.82C21.5564 37.724 21.8724 36.88 22.5044 36.288C23.0564 35.768 23.7884 35.508 24.7004 35.508ZM24.7004 36.84C24.2524 36.84 23.8924 37.024 23.6204 37.392C23.3484 37.752 23.2124 38.228 23.2124 38.82C23.2124 39.46 23.3644 39.964 23.6684 40.332C23.9404 40.644 24.2844 40.8 24.7004 40.8C25.1484 40.8 25.5084 40.62 25.7804 40.26C26.0604 39.892 26.2004 39.412 26.2004 38.82C26.2004 38.188 26.0444 37.688 25.7324 37.32C25.4604 37 25.1164 36.84 24.7004 36.84ZM29.0643 35.64H30.7083V36.408C31.1963 35.808 31.7763 35.508 32.4483 35.508C33.2723 35.508 33.8483 35.82 34.1763 36.444C34.6563 35.82 35.2763 35.508 36.0363 35.508C36.6763 35.508 37.1723 35.684 37.5243 36.036C37.8843 36.38 38.0643 36.86 38.0643 37.476V42H36.4203V37.74C36.4203 37.188 36.1203 36.912 35.5203 36.912C35.1683 36.912 34.8923 37.024 34.6923 37.248C34.4923 37.464 34.3923 37.768 34.3923 38.16V42H32.7363V37.74C32.7363 37.188 32.4403 36.912 31.8483 36.912C31.4963 36.912 31.2203 37.024 31.0203 37.248C30.8203 37.464 30.7203 37.768 30.7203 38.16V42H29.0643V35.64ZM45.1198 39.252H40.8478C40.8718 39.764 40.9518 40.128 41.0878 40.344C41.3198 40.696 41.6838 40.872 42.1798 40.872C42.7958 40.872 43.2078 40.616 43.4158 40.104H45.0478C44.8638 40.728 44.5038 41.224 43.9678 41.592C43.4398 41.952 42.8198 42.132 42.1078 42.132C41.1398 42.132 40.3958 41.808 39.8758 41.16C39.4198 40.592 39.1918 39.844 39.1918 38.916C39.1918 37.788 39.4878 36.916 40.0798 36.3C40.5998 35.772 41.2838 35.508 42.1318 35.508C42.7798 35.508 43.3478 35.668 43.8358 35.988C44.3238 36.308 44.6718 36.756 44.8798 37.332C45.0478 37.78 45.1318 38.32 45.1318 38.952C45.1318 39.032 45.1278 39.132 45.1198 39.252ZM43.4038 38.16C43.3238 37.232 42.8958 36.768 42.1198 36.768C41.3918 36.768 40.9758 37.232 40.8718 38.16H43.4038Z" fill="#0CB502"/>
</svg>
