<svg width="20" height="21" viewBox="0 0 20 21" fill="none" xmlns="http://www.w3.org/2000/svg">
<path d="M13.2101 15.7782H18.56L17.0567 14.3147C16.8548 14.1181 16.6947 13.8847 16.5854 13.6279C16.4762 13.3711 16.42 13.0958 16.42 12.8178V9.52822C16.4202 8.23544 16.0087 6.97441 15.2423 5.91873C14.4758 4.86305 13.392 4.06464 12.1402 3.63343V3.27822C12.1402 2.72568 11.9147 2.19578 11.5134 1.80508C11.1121 1.41438 10.5678 1.19489 10.0002 1.19489C9.43266 1.19489 8.88836 1.41438 8.48704 1.80508C8.08573 2.19578 7.86027 2.72568 7.86027 3.27822V3.63343C5.36723 4.49176 3.58038 6.80738 3.58038 9.52822V12.8188C3.58038 13.3793 3.3514 13.9178 2.94374 14.3147L1.44043 15.7782H6.79029M13.2101 15.7782H6.79029M13.2101 15.7782V16.8199C13.2101 17.6487 12.8719 18.4435 12.27 19.0296C11.668 19.6156 10.8515 19.9449 10.0002 19.9449C9.14889 19.9449 8.33243 19.6156 7.73046 19.0296C7.12848 18.4435 6.79029 17.6487 6.79029 16.8199V15.7782" stroke="black" stroke-opacity="0.65" stroke-width="1.8" stroke-linecap="round" stroke-linejoin="round"/>
</svg>
