<svg width="58" height="43" viewBox="0 0 58 43" fill="none" xmlns="http://www.w3.org/2000/svg">
<path d="M29 12C31.7614 12 34 9.76142 34 7C34 4.23858 31.7614 2 29 2C26.2386 2 24 4.23858 24 7C24 9.76142 26.2386 12 29 12Z" stroke="black" stroke-opacity="0.55" stroke-width="1.5" stroke-linecap="round" stroke-linejoin="round"/>
<path d="M37.5901 22C37.5901 18.13 33.7402 15 29.0002 15C24.2602 15 20.4102 18.13 20.4102 22" stroke="black" stroke-opacity="0.55" stroke-width="1.5" stroke-linecap="round" stroke-linejoin="round"/>
<path d="M14.4608 38.364V42H13.3688V33.408H16.9208C17.8248 33.408 18.5048 33.656 18.9608 34.152C19.3608 34.584 19.5608 35.176 19.5608 35.928C19.5608 36.688 19.3168 37.292 18.8288 37.74C18.3808 38.156 17.8248 38.364 17.1608 38.364H14.4608ZM14.4608 37.392H16.7528C17.2728 37.392 17.6808 37.26 17.9768 36.996C18.2728 36.732 18.4208 36.36 18.4208 35.88C18.4208 35.408 18.2728 35.04 17.9768 34.776C17.6808 34.512 17.2728 34.38 16.7528 34.38H14.4608V37.392ZM20.9801 35.832H21.8921V36.96C22.2521 36.112 22.8201 35.688 23.5961 35.688C23.6921 35.688 23.8081 35.7 23.9441 35.724V36.732C23.3041 36.74 22.8641 36.832 22.6241 37.008C22.1841 37.328 21.9641 37.924 21.9641 38.796V42H20.9801V35.832ZM27.3298 35.7C28.2578 35.7 28.9658 36.024 29.4538 36.672C29.8858 37.232 30.1018 37.992 30.1018 38.952C30.1018 40.024 29.8218 40.84 29.2618 41.4C28.7818 41.888 28.1338 42.132 27.3178 42.132C26.3738 42.132 25.6538 41.816 25.1578 41.184C24.7258 40.632 24.5098 39.888 24.5098 38.952C24.5098 37.864 24.7938 37.028 25.3618 36.444C25.8498 35.948 26.5058 35.7 27.3298 35.7ZM27.3298 36.6C26.7698 36.6 26.3298 36.812 26.0098 37.236C25.6898 37.652 25.5298 38.224 25.5298 38.952C25.5298 39.712 25.7098 40.292 26.0698 40.692C26.3818 41.044 26.7978 41.22 27.3178 41.22C27.8698 41.22 28.2978 41.02 28.6018 40.62C28.9138 40.22 29.0698 39.664 29.0698 38.952C29.0698 38.168 28.8938 37.568 28.5418 37.152C28.2378 36.784 27.8338 36.6 27.3298 36.6ZM33.6766 35.832V36.624H32.6566V42H31.6846V36.624H30.8566V35.832H31.6846V34.776C31.6846 34.336 31.8086 33.992 32.0566 33.744C32.3126 33.496 32.6686 33.372 33.1246 33.372C33.3006 33.372 33.4846 33.392 33.6766 33.432V34.248H33.5686C33.4806 34.24 33.4046 34.236 33.3406 34.236C32.8846 34.236 32.6566 34.444 32.6566 34.86V35.832H33.6766ZM35.6739 35.832V42H34.7019V35.832H35.6739ZM35.2059 33.42C35.3739 33.42 35.5139 33.48 35.6259 33.6C35.7459 33.712 35.8059 33.848 35.8059 34.008C35.8059 34.176 35.7459 34.32 35.6259 34.44C35.5139 34.552 35.3739 34.608 35.2059 34.608C35.0459 34.608 34.9059 34.552 34.7859 34.44C34.6739 34.32 34.6179 34.176 34.6179 34.008C34.6179 33.848 34.6739 33.712 34.7859 33.6C34.9059 33.48 35.0459 33.42 35.2059 33.42ZM38.3232 33.408V42H37.3392V33.408H38.3232ZM45.1844 39.204H40.6364C40.6444 39.732 40.7564 40.152 40.9724 40.464C41.3164 40.968 41.8124 41.22 42.4604 41.22C43.2604 41.22 43.8004 40.84 44.0804 40.08H45.0644C44.9364 40.728 44.6404 41.232 44.1764 41.592C43.7124 41.952 43.1284 42.132 42.4244 42.132C41.4884 42.132 40.7724 41.812 40.2764 41.172C39.8364 40.612 39.6164 39.872 39.6164 38.952C39.6164 37.888 39.9044 37.06 40.4804 36.468C40.9844 35.956 41.6364 35.7 42.4364 35.7C43.0204 35.7 43.5324 35.84 43.9724 36.12C44.4204 36.4 44.7404 36.784 44.9324 37.272C45.1004 37.688 45.1844 38.32 45.1844 39.168V39.204ZM44.1284 38.4C44.1284 37.864 43.9684 37.432 43.6484 37.104C43.3364 36.768 42.9324 36.6 42.4364 36.6C41.9324 36.6 41.5204 36.764 41.2004 37.092C40.8884 37.412 40.7124 37.848 40.6724 38.4H44.1284Z" fill="black" fill-opacity="0.55"/>
</svg>
