<svg width="18" height="18" viewBox="0 0 18 18" fill="none" xmlns="http://www.w3.org/2000/svg">
<path d="M17 17.1398L12.4286 12.5684M7.85714 14.8541C6.95665 14.8541 6.06497 14.6768 5.23303 14.3321C4.40108 13.9875 3.64516 13.4825 3.00841 12.8457C2.37167 12.209 1.86657 11.453 1.52197 10.6211C1.17737 9.78914 1 8.89747 1 7.99697C1 7.09648 1.17737 6.20481 1.52197 5.37286C1.86657 4.54091 2.37167 3.78499 3.00841 3.14824C3.64516 2.5115 4.40108 2.0064 5.23303 1.6618C6.06497 1.3172 6.95665 1.13983 7.85714 1.13983C9.67577 1.13983 11.4199 1.86228 12.7059 3.14824C13.9918 4.43421 14.7143 6.17835 14.7143 7.99697C14.7143 9.8156 13.9918 11.5597 12.7059 12.8457C11.4199 14.1317 9.67577 14.8541 7.85714 14.8541Z" stroke="black" stroke-opacity="0.55" stroke-width="1.2"/>
</svg>
