<svg width="58" height="43" viewBox="0 0 58 43" fill="none" xmlns="http://www.w3.org/2000/svg">
<path d="M20.8997 10.4133L20.9021 10.4025L21.9686 5.60301C21.9686 5.60293 21.9687 5.60285 21.9687 5.60276C22.0944 5.02401 22.4151 4.506 22.8771 4.13538C23.3391 3.76476 23.9143 3.56402 24.5066 3.56674M20.8997 10.4133L24.5063 3.66674M20.8997 10.4133V10.4242V11.1667C20.8997 11.6353 21.0858 12.0846 21.4171 12.416C21.7484 12.7473 22.1978 12.9334 22.6663 12.9334H23.4997C23.9682 12.9334 24.4176 12.7473 24.7489 12.416C25.0802 12.0846 25.2663 11.6353 25.2663 11.1667C25.2663 10.9722 25.3436 10.7857 25.4811 10.6482C25.6187 10.5107 25.8052 10.4334 25.9997 10.4334C26.1942 10.4334 26.3807 10.5107 26.5182 10.6482C26.6557 10.7857 26.733 10.9722 26.733 11.1667C26.733 11.6353 26.9191 12.0846 27.2505 12.416C27.5818 12.7473 28.0311 12.9334 28.4997 12.9334H30.1663C30.6349 12.9334 31.0842 12.7473 31.4156 12.416C31.7469 12.0846 31.933 11.6353 31.933 11.1667C31.933 10.9722 32.0103 10.7857 32.1478 10.6482C32.2853 10.5107 32.4718 10.4334 32.6663 10.4334C32.8608 10.4334 33.0474 10.5107 33.1849 10.6482C33.3224 10.7857 33.3997 10.9722 33.3997 11.1667C33.3997 11.6353 33.5858 12.0846 33.9171 12.416C34.2484 12.7473 34.6978 12.9334 35.1663 12.9334H35.9997C36.4682 12.9334 36.9176 12.7473 37.2489 12.416C37.5802 12.0846 37.7663 11.6353 37.7663 11.1667V10.4242V10.4133L37.764 10.4025L36.6974 5.60301L20.8997 10.4133ZM24.5066 3.56674C24.5067 3.56674 24.5067 3.56674 24.5068 3.56674L24.5063 3.66674M24.5066 3.56674H24.5063V3.66674M24.5066 3.56674H26.8113L26.7978 3.5729L26.485 3.66674H24.5063M33.4725 3.56674H33.4997H33.56H34.1594H34.1597H33.4725ZM33.4725 3.56674H33.46H31.833H26.833H33.4725ZM25.4474 4.18675L26.1578 3.97366L25.294 4.36633C25.2848 4.33352 25.2777 4.3 25.2731 4.26601M25.4474 4.18675L26.1226 3.87982L25.1663 4.16667M25.4474 4.18675L25.27 4.23997M25.4474 4.18675L25.2731 4.26601M25.1663 4.16667C25.1663 4.21469 25.1705 4.26228 25.1786 4.30897L25.2731 4.26601M25.1663 4.16667L25.1951 4.26245L25.27 4.23997M25.1663 4.16667H25.2663C25.2663 4.19126 25.2676 4.21572 25.27 4.23997M25.2731 4.26601C25.2719 4.25736 25.2709 4.24868 25.27 4.23997M25 4.5L25.1103 4.44984C25.1133 4.4593 25.1165 4.4687 25.1198 4.47805C25.1165 4.47692 25.1134 4.47579 25.1104 4.47464C25.0919 4.46757 25.0858 4.46267 25.0859 4.46273C25.0873 4.46399 25.1 4.47674 25.1 4.5H25ZM25 4.5C25 4.51214 25.0053 4.52325 25.0152 4.53343L25 4.5ZM25.5384 4.73674C25.5039 4.73452 25.47 4.73208 25.437 4.72938C25.4178 4.72782 25.399 4.72617 25.3805 4.72443C25.3902 4.73516 25.4002 4.74566 25.4104 4.75592C25.5667 4.9122 25.7787 5 25.9997 5C26.2207 5 26.4326 4.9122 26.5889 4.75592C26.614 4.73089 26.5902 4.71298 26.5327 4.69965C26.5258 4.69805 26.5184 4.69652 26.5106 4.69505C26.5076 4.69969 26.5045 4.70595 26.5022 4.71387C26.496 4.73492 26.4985 4.75806 26.5089 4.77735C26.5176 4.79343 26.5286 4.8009 26.5311 4.80255C26.5328 4.8036 26.5337 4.80407 26.5337 4.80407C26.5337 4.80407 26.5329 4.80367 26.531 4.80296C26.5119 4.79594 26.4695 4.78794 26.4002 4.78095M25.5384 4.73674C25.6683 4.84188 25.831 4.9 25.9997 4.9C26.143 4.9 26.282 4.85805 26.4002 4.78095M25.5384 4.73674C25.6394 4.74326 25.7455 4.74798 25.849 4.75215C25.8815 4.75347 25.9138 4.75473 25.9456 4.75597C26.1197 4.76277 26.2801 4.76903 26.3967 4.7806C26.3979 4.78071 26.3991 4.78083 26.4002 4.78095M25.5384 4.73674C25.5185 4.72065 25.4994 4.70346 25.4811 4.68521C25.463 4.66711 25.446 4.64817 25.43 4.62846C25.5894 4.642 25.774 4.6492 25.9487 4.65601C26.1794 4.66501 26.3928 4.67333 26.5086 4.69468C26.475 4.72701 26.4387 4.75584 26.4002 4.78095M35.1663 14.5001C34.6932 14.5003 34.2254 14.3996 33.7943 14.2046C33.3937 14.0234 33.0334 13.7647 32.7339 13.4438C32.7364 13.441 32.739 13.4381 32.7415 13.4352L32.6663 13.3692L32.5912 13.4352C32.5937 13.4381 32.5963 13.441 32.5988 13.4438C32.2993 13.7647 31.939 14.0234 31.5384 14.2046C31.1073 14.3996 30.6395 14.5003 30.1663 14.5001H35.1663ZM35.1663 14.5001H35.9997H35.1663ZM39.233 10.3333V10.3334V11.1667V11.1668C39.2337 11.9537 38.9461 12.7136 38.4248 13.303L38.3997 13.3314V13.3692V17.8333C38.3984 18.9115 37.9695 19.9451 37.2071 20.7075C36.4447 21.4699 35.4111 21.8988 34.3329 21.9001H24.3331C23.2549 21.8988 22.2213 21.4699 21.4589 20.7075C20.6965 19.9451 20.2677 18.9115 20.2663 17.8334V13.3692V13.3314L20.2412 13.303C19.7199 12.7136 19.4324 11.9537 19.433 11.1668V11.1667L19.433 10.3334L19.433 10.3333C19.433 10.2799 19.4389 10.2266 19.4506 10.1745L19.4506 10.1743L20.5373 5.28426L20.5374 5.28376C20.7337 4.3786 21.2351 3.56837 21.9575 2.98878C22.68 2.40919 23.5796 2.09543 24.5058 2.10007H24.5063L34.1597 2.10007L34.1603 2.10007C35.087 2.09468 35.9874 2.40809 36.7106 2.98775C37.4337 3.5674 37.9355 4.37805 38.1319 5.28376L38.132 5.2842L39.2154 10.1742L39.2154 10.1745C39.2271 10.2266 39.233 10.2799 39.233 10.3333ZM19.333 10.3334V11.1667C19.3323 11.9781 19.6288 12.7616 20.1663 13.3692L19.333 10.3334ZM25.2369 4.50217C25.2373 4.50322 25.2378 4.50428 25.2383 4.50533C25.2362 4.50499 25.2342 4.50465 25.2322 4.50431L25.2369 4.50217ZM25.0842 4.57155L25.1458 4.54356C25.1534 4.56075 25.1615 4.57772 25.1701 4.59444C25.1374 4.58767 25.1085 4.58009 25.0842 4.57155ZM32.6663 4.9C32.5603 4.9 32.4565 4.87701 32.3618 4.83379C32.4428 4.83156 32.5264 4.82776 32.608 4.82364C32.6464 4.8217 32.6843 4.81969 32.7214 4.81773C32.8355 4.8117 32.9414 4.8061 33.0288 4.80414C32.9193 4.86642 32.7946 4.9 32.6663 4.9ZM21.8581 14.2974L21.733 14.265V14.3942V17.8334C21.733 18.523 22.0069 19.1843 22.4945 19.6719C22.9821 20.1595 23.6434 20.4334 24.333 20.4334H34.333C35.0226 20.4334 35.6839 20.1595 36.1715 19.6719C36.6591 19.1843 36.933 18.523 36.933 17.8334V14.3942V14.265L36.8079 14.2974C36.544 14.3658 36.2724 14.4003 35.9997 14.4001H35.9997H35.1663H35.1663C34.7073 14.4003 34.2536 14.3026 33.8355 14.1134C33.4173 13.9243 33.0443 13.6481 32.7415 13.3032L32.6663 13.2177L32.5912 13.3032C32.2883 13.6481 31.9154 13.9243 31.4972 14.1134C31.0791 14.3026 30.6253 14.4003 30.1664 14.4001H30.1663H28.4997H28.4996C28.0407 14.4003 27.587 14.3026 27.1688 14.1134C26.7506 13.9243 26.3777 13.6481 26.0748 13.3032L25.9997 13.2177L25.9245 13.3032C25.6217 13.6481 25.2487 13.9243 24.8305 14.1134C24.4124 14.3026 23.9587 14.4003 23.4997 14.4001H23.4997H22.6663H22.6663C22.3936 14.4003 22.122 14.3658 21.8581 14.2974ZM39.333 11.1667V10.3334L38.4997 13.3692C39.0372 12.7616 39.3337 11.9781 39.333 11.1667Z" fill="#737373" stroke="white" stroke-width="0.2"/>
<path d="M11.6766 42H10.4886L7.40464 33.408H8.58064L11.1126 40.68L13.4886 33.408H14.6526L11.6766 42ZM20.9559 39.204H16.4079C16.4159 39.732 16.5279 40.152 16.7439 40.464C17.0879 40.968 17.5839 41.22 18.2319 41.22C19.0319 41.22 19.5719 40.84 19.8519 40.08H20.8359C20.7079 40.728 20.4119 41.232 19.9479 41.592C19.4839 41.952 18.8999 42.132 18.1959 42.132C17.2599 42.132 16.5439 41.812 16.0479 41.172C15.6079 40.612 15.3879 39.872 15.3879 38.952C15.3879 37.888 15.6759 37.06 16.2519 36.468C16.7559 35.956 17.4079 35.7 18.2079 35.7C18.7919 35.7 19.3039 35.84 19.7439 36.12C20.1919 36.4 20.5119 36.784 20.7039 37.272C20.8719 37.688 20.9559 38.32 20.9559 39.168V39.204ZM19.8999 38.4C19.8999 37.864 19.7399 37.432 19.4199 37.104C19.1079 36.768 18.7039 36.6 18.2079 36.6C17.7039 36.6 17.2919 36.764 16.9719 37.092C16.6599 37.412 16.4839 37.848 16.4439 38.4H19.8999ZM22.2987 35.832H23.2107V36.876C23.7067 36.092 24.3867 35.7 25.2507 35.7C25.8507 35.7 26.3267 35.852 26.6787 36.156C27.0307 36.452 27.2067 36.852 27.2067 37.356V42H26.2347V37.752C26.2347 37.384 26.1187 37.092 25.8867 36.876C25.6627 36.66 25.3547 36.552 24.9627 36.552C24.4507 36.552 24.0427 36.74 23.7387 37.116C23.4347 37.492 23.2827 37.992 23.2827 38.616V42H22.2987V35.832ZM33.8655 33.408V42H32.8815V41.148C32.4895 41.812 31.8815 42.144 31.0575 42.144C30.1535 42.144 29.4575 41.816 28.9695 41.16C28.5455 40.584 28.3335 39.824 28.3335 38.88C28.3335 37.848 28.6095 37.04 29.1615 36.456C29.6335 35.952 30.2455 35.7 30.9975 35.7C31.8295 35.7 32.4575 36.012 32.8815 36.636V33.408H33.8655ZM31.1655 36.612C30.6215 36.612 30.1815 36.828 29.8455 37.26C29.5175 37.684 29.3535 38.248 29.3535 38.952C29.3535 39.68 29.5455 40.252 29.9295 40.668C30.2575 41.036 30.6735 41.22 31.1775 41.22C31.6975 41.22 32.1095 41.016 32.4135 40.608C32.7255 40.2 32.8815 39.648 32.8815 38.952C32.8815 38.192 32.7055 37.6 32.3535 37.176C32.0415 36.8 31.6455 36.612 31.1655 36.612ZM37.8123 35.7C38.7403 35.7 39.4483 36.024 39.9363 36.672C40.3683 37.232 40.5843 37.992 40.5843 38.952C40.5843 40.024 40.3043 40.84 39.7443 41.4C39.2643 41.888 38.6163 42.132 37.8003 42.132C36.8563 42.132 36.1363 41.816 35.6403 41.184C35.2083 40.632 34.9923 39.888 34.9923 38.952C34.9923 37.864 35.2763 37.028 35.8443 36.444C36.3323 35.948 36.9883 35.7 37.8123 35.7ZM37.8123 36.6C37.2523 36.6 36.8123 36.812 36.4923 37.236C36.1723 37.652 36.0123 38.224 36.0123 38.952C36.0123 39.712 36.1923 40.292 36.5523 40.692C36.8643 41.044 37.2803 41.22 37.8003 41.22C38.3523 41.22 38.7803 41.02 39.0843 40.62C39.3963 40.22 39.5523 39.664 39.5523 38.952C39.5523 38.168 39.3763 37.568 39.0243 37.152C38.7203 36.784 38.3163 36.6 37.8123 36.6ZM41.939 35.832H42.851V36.96C43.211 36.112 43.779 35.688 44.555 35.688C44.651 35.688 44.767 35.7 44.903 35.724V36.732C44.263 36.74 43.823 36.832 43.583 37.008C43.143 37.328 42.923 37.924 42.923 38.796V42H41.939V35.832ZM50.2568 37.524H49.1768C49.1448 36.908 48.7328 36.6 47.9408 36.6C47.5328 36.6 47.2088 36.68 46.9688 36.84C46.7368 36.992 46.6208 37.2 46.6208 37.464C46.6208 37.864 47.0008 38.152 47.7608 38.328L48.7088 38.544C49.3248 38.688 49.7688 38.892 50.0408 39.156C50.3128 39.42 50.4488 39.78 50.4488 40.236C50.4488 40.82 50.2208 41.284 49.7648 41.628C49.3088 41.964 48.6928 42.132 47.9168 42.132C47.0688 42.132 46.4248 41.932 45.9848 41.532C45.6168 41.204 45.4208 40.768 45.3968 40.224H46.5128C46.5768 40.504 46.6648 40.708 46.7768 40.836C46.9928 41.092 47.3968 41.22 47.9888 41.22C48.4288 41.22 48.7768 41.14 49.0328 40.98C49.2968 40.812 49.4288 40.592 49.4288 40.32C49.4288 39.912 49.1128 39.632 48.4808 39.48L47.5568 39.264C46.8528 39.096 46.3608 38.896 46.0808 38.664C45.7608 38.4 45.6008 38.02 45.6008 37.524C45.6008 36.964 45.8128 36.52 46.2368 36.192C46.6688 35.864 47.2448 35.7 47.9648 35.7C48.7168 35.7 49.3008 35.888 49.7168 36.264C50.0768 36.592 50.2568 37.012 50.2568 37.524Z" fill="black" fill-opacity="0.55"/>
</svg>
