<svg width="24" height="24" viewBox="0 0 24 24" fill="none" xmlns="http://www.w3.org/2000/svg">
<path d="M3.89968 10.4133L3.90206 10.4025L4.96862 5.60301C4.96864 5.60293 4.96866 5.60285 4.96867 5.60276C5.09444 5.02401 5.41514 4.506 5.87711 4.13538C6.33909 3.76476 6.91432 3.56402 7.50658 3.56674M3.89968 10.4133L7.50634 3.66674M3.89968 10.4133V10.4242V11.1667C3.89968 11.6353 4.08581 12.0846 4.41712 12.416C4.74843 12.7473 5.19779 12.9334 5.66634 12.9334H6.49968C6.96822 12.9334 7.41758 12.7473 7.7489 12.416C8.08021 12.0846 8.26634 11.6353 8.26634 11.1667C8.26634 10.9722 8.3436 10.7857 8.48113 10.6482C8.61866 10.5107 8.80518 10.4334 8.99967 10.4334C9.19417 10.4334 9.38069 10.5107 9.51822 10.6482C9.65575 10.7857 9.73301 10.9722 9.73301 11.1667C9.73301 11.6353 9.91914 12.0846 10.2505 12.416C10.5818 12.7473 11.0311 12.9334 11.4997 12.9334H13.1663C13.6349 12.9334 14.0842 12.7473 14.4156 12.416C14.7469 12.0846 14.933 11.6353 14.933 11.1667C14.933 10.9722 15.0103 10.7857 15.1478 10.6482C15.2853 10.5107 15.4718 10.4334 15.6663 10.4334C15.8608 10.4334 16.0474 10.5107 16.1849 10.6482C16.3224 10.7857 16.3997 10.9722 16.3997 11.1667C16.3997 11.6353 16.5858 12.0846 16.9171 12.416C17.2484 12.7473 17.6978 12.9334 18.1663 12.9334H18.9997C19.4682 12.9334 19.9176 12.7473 20.2489 12.416C20.5802 12.0846 20.7663 11.6353 20.7663 11.1667V10.4242V10.4133L20.764 10.4025L19.6974 5.60301L3.89968 10.4133ZM7.50658 3.56674C7.50666 3.56674 7.50673 3.56674 7.50681 3.56674L7.50634 3.66674M7.50658 3.56674H7.50634V3.66674M7.50658 3.56674H9.81135L9.79779 3.5729L9.48495 3.66674H7.50634M16.4725 3.56674H16.4997H16.56H17.1594H17.1597H16.4725ZM16.4725 3.56674H16.46H14.833H9.83301H16.4725ZM8.44744 4.18675L9.15783 3.97366L8.29404 4.36633C8.28476 4.33352 8.27775 4.3 8.2731 4.26601M8.44744 4.18675L9.12262 3.87982L8.16634 4.16667M8.44744 4.18675L8.27001 4.23997M8.44744 4.18675L8.2731 4.26601M8.16634 4.16667C8.16634 4.21469 8.17049 4.26228 8.17858 4.30897L8.2731 4.26601M8.16634 4.16667L8.19507 4.26245L8.27001 4.23997M8.16634 4.16667H8.26634C8.26634 4.19126 8.26758 4.21572 8.27001 4.23997M8.2731 4.26601C8.27192 4.25736 8.27089 4.24868 8.27001 4.23997M8 4.5L8.11034 4.44984C8.11335 4.4593 8.11651 4.4687 8.11981 4.47805C8.11653 4.47692 8.1134 4.47579 8.11041 4.47464C8.09192 4.46757 8.08581 4.46267 8.08587 4.46273C8.08729 4.46399 8.1 4.47674 8.1 4.5H8ZM8 4.5C8 4.51214 8.00527 4.52325 8.0152 4.53343L8 4.5ZM8.53838 4.73674C8.50388 4.73452 8.46997 4.73208 8.43696 4.72938C8.41783 4.72782 8.39899 4.72617 8.38052 4.72443C8.39019 4.73516 8.40016 4.74566 8.41042 4.75592C8.5667 4.9122 8.77866 5 8.99967 5C9.22069 5 9.43265 4.9122 9.58893 4.75592C9.61396 4.73089 9.59021 4.71298 9.53265 4.69965C9.52576 4.69805 9.51839 4.69652 9.51056 4.69505C9.50765 4.69969 9.50451 4.70595 9.50218 4.71387C9.496 4.73492 9.49846 4.75806 9.50891 4.77735C9.51762 4.79343 9.5286 4.8009 9.53113 4.80255C9.53276 4.8036 9.53372 4.80407 9.53372 4.80407C9.53372 4.80407 9.53288 4.80367 9.53096 4.80296C9.51191 4.79594 9.46947 4.78794 9.40022 4.78095M8.53838 4.73674C8.66831 4.84188 8.83099 4.9 8.99967 4.9C9.14299 4.9 9.28198 4.85805 9.40022 4.78095M8.53838 4.73674C8.63943 4.74326 8.74553 4.74798 8.84904 4.75215C8.88155 4.75347 8.91378 4.75473 8.94556 4.75597C9.11974 4.76277 9.28015 4.76903 9.39672 4.7806C9.39789 4.78071 9.39906 4.78083 9.40022 4.78095M8.53838 4.73674C8.5185 4.72065 8.49938 4.70346 8.48113 4.68521C8.46303 4.66711 8.44598 4.64817 8.43001 4.62846C8.58944 4.642 8.774 4.6492 8.9487 4.65601C9.17936 4.66501 9.39283 4.67333 9.50857 4.69468C9.47503 4.72701 9.43873 4.75584 9.40022 4.78095M18.1663 14.5001C17.6932 14.5003 17.2254 14.3996 16.7943 14.2046C16.3937 14.0234 16.0334 13.7647 15.7339 13.4438C15.7364 13.441 15.739 13.4381 15.7415 13.4352L15.6663 13.3692L15.5912 13.4352C15.5937 13.4381 15.5963 13.441 15.5988 13.4438C15.2993 13.7647 14.939 14.0234 14.5384 14.2046C14.1073 14.3996 13.6395 14.5003 13.1663 14.5001H18.1663ZM18.1663 14.5001H18.9997H18.1663ZM22.233 10.3333V10.3334V11.1667V11.1668C22.2337 11.9537 21.9461 12.7136 21.4248 13.303L21.3997 13.3314V13.3692V17.8333C21.3984 18.9115 20.9695 19.9451 20.2071 20.7075C19.4447 21.4699 18.4111 21.8988 17.3329 21.9001H7.33313C6.25495 21.8988 5.22129 21.4699 4.4589 20.7075C3.69654 19.9451 3.26766 18.9115 3.26634 17.8334V13.3692V13.3314L3.24124 13.303C2.71987 12.7136 2.43236 11.9537 2.43301 11.1668V11.1667L2.43301 10.3334L2.43301 10.3333C2.43298 10.2799 2.43887 10.2266 2.45058 10.1745L2.45063 10.1743L3.5373 5.28426L3.5374 5.28376C3.73371 4.3786 4.23507 3.56837 4.95753 2.98878C5.67998 2.40919 6.57964 2.09543 7.50584 2.10007H7.50634L17.1597 2.10007L17.1603 2.10007C18.087 2.09468 18.9874 2.40809 19.7106 2.98775C20.4337 3.5674 20.9355 4.37805 21.1319 5.28376L21.132 5.2842L22.2154 10.1742L22.2154 10.1745C22.2271 10.2266 22.233 10.2799 22.233 10.3333ZM2.33301 10.3334V11.1667C2.33234 11.9781 2.62878 12.7616 3.16634 13.3692L2.33301 10.3334ZM8.23686 4.50217C8.23733 4.50322 8.23779 4.50428 8.23826 4.50533C8.23621 4.50499 8.23418 4.50465 8.23217 4.50431L8.23686 4.50217ZM8.08425 4.57155L8.14582 4.54356C8.15341 4.56075 8.16152 4.57772 8.17014 4.59444C8.13742 4.58767 8.10852 4.58009 8.08425 4.57155ZM15.6663 4.9C15.5603 4.9 15.4565 4.87701 15.3618 4.83379C15.4428 4.83156 15.5264 4.82776 15.608 4.82364C15.6464 4.8217 15.6843 4.81969 15.7214 4.81773C15.8355 4.8117 15.9414 4.8061 16.0288 4.80414C15.9193 4.86642 15.7946 4.9 15.6663 4.9ZM4.85808 14.2974L4.73301 14.265V14.3942V17.8334C4.73301 18.523 5.00694 19.1843 5.49453 19.6719C5.98213 20.1595 6.64345 20.4334 7.33301 20.4334H17.333C18.0226 20.4334 18.6839 20.1595 19.1715 19.6719C19.6591 19.1843 19.933 18.523 19.933 17.8334V14.3942V14.265L19.8079 14.2974C19.544 14.3658 19.2724 14.4003 18.9997 14.4001H18.9997H18.1663H18.1663C17.7073 14.4003 17.2536 14.3026 16.8355 14.1134C16.4173 13.9243 16.0443 13.6481 15.7415 13.3032L15.6663 13.2177L15.5912 13.3032C15.2883 13.6481 14.9154 13.9243 14.4972 14.1134C14.0791 14.3026 13.6253 14.4003 13.1664 14.4001H13.1663H11.4997H11.4996C11.0407 14.4003 10.587 14.3026 10.1688 14.1134C9.75064 13.9243 9.37767 13.6481 9.07481 13.3032L8.99967 13.2177L8.92454 13.3032C8.62168 13.6481 8.24871 13.9243 7.83055 14.1134C7.41239 14.3026 6.95868 14.4003 6.49973 14.4001H6.49968H5.66634H5.66627C5.39361 14.4003 5.12203 14.3658 4.85808 14.2974ZM22.333 11.1667V10.3334L21.4997 13.3692C22.0372 12.7616 22.3337 11.9781 22.333 11.1667Z" fill="#737373" stroke="white" stroke-width="0.2"/>
</svg>
