<svg width="228" height="81" viewBox="0 0 228 81" fill="none" xmlns="http://www.w3.org/2000/svg">
<path d="M41.0659 0.829753C39.6544 2.88229 39.7444 5.55903 41.1333 7.45974C41.1606 7.49709 41.1795 7.5399 41.1886 7.58514C41.1977 7.63037 41.1969 7.67692 41.1862 7.72148C41.1754 7.76603 41.155 7.8075 41.1265 7.84293C41.0979 7.87836 41.0619 7.90689 41.0209 7.92648L40.8859 7.99396C40.6197 8.12143 40.3967 8.06894 40.2167 7.83651C38.6084 5.80084 38.2036 2.24685 40.5935 0.599196C40.706 0.520468 40.8166 0.488603 40.9253 0.503599C41.1502 0.533591 41.1971 0.642306 41.0659 0.829753Z" fill="#0CB502"/>
<path d="M42.5729 2.01613C42.7585 3.64129 42.8653 4.50167 43.7594 5.95251C43.7827 5.99069 43.7975 6.03338 43.8029 6.07764C43.8084 6.1219 43.8043 6.16668 43.7909 6.2089C43.7775 6.25112 43.7552 6.28978 43.7255 6.32221C43.6958 6.35464 43.6594 6.38007 43.6189 6.39676C41.392 7.30213 41.5888 2.55598 41.8475 1.49878C41.8962 1.30383 42.0087 1.2551 42.1849 1.35257C42.4098 1.47628 42.5392 1.69747 42.5729 2.01613Z" fill="#0CB502"/>
<path d="M37.56 5.20486C37.4299 5.24839 37.2615 5.1598 37.0919 4.95856C36.9222 4.75732 36.7652 4.45993 36.6554 4.1318C36.6011 3.96932 36.56 3.80419 36.5344 3.64583C36.5088 3.48747 36.4993 3.33899 36.5064 3.20886C36.5136 3.07873 36.5372 2.96951 36.5759 2.88742C36.6146 2.80534 36.6677 2.752 36.7322 2.73045C36.8623 2.68692 37.0307 2.77551 37.2003 2.97675C37.37 3.17799 37.5269 3.47538 37.6367 3.80351C37.6911 3.96598 37.7322 4.13112 37.7578 4.28948C37.7834 4.44784 37.7929 4.59632 37.7857 4.72645C37.7786 4.85658 37.755 4.9658 37.7163 5.04789C37.6776 5.12998 37.6245 5.18331 37.56 5.20486Z" fill="#0CB502"/>
<path d="M37.2082 9.88915C37.2286 9.91911 37.2392 9.9547 37.2384 9.99095C37.2376 10.0272 37.2256 10.0623 37.2039 10.0914C37.1823 10.1205 37.1521 10.1421 37.1176 10.1532C37.0831 10.1643 37.0459 10.1644 37.0114 10.1534L36.1173 9.86103C35.7349 9.73356 35.5006 9.47113 35.4143 9.07375L34.4752 4.58065C34.4382 4.40747 34.468 4.22656 34.5585 4.07356C34.6491 3.92056 34.7939 3.80656 34.9645 3.75401L35.1388 3.69778C35.1935 3.68138 35.2514 3.67823 35.3075 3.6886C35.3636 3.69898 35.4163 3.72258 35.461 3.75738C35.5058 3.79218 35.5412 3.83716 35.5645 3.88847C35.5877 3.93978 35.5979 3.9959 35.5943 4.05205C35.4781 6.1852 36.016 8.1309 37.2082 9.88915Z" fill="#0CB502"/>
<path d="M34.8799 11.5592C34.9399 11.6642 34.9118 11.7335 34.7956 11.7673L33.4122 12.1778C33.3335 12.2003 33.2904 12.1703 33.2829 12.0878C33.0748 9.86094 32.4394 8.09519 32.5575 5.82334C32.565 5.71087 32.6175 5.62839 32.7149 5.57591L32.923 5.46344C33.1667 5.33223 33.2904 5.40346 33.2941 5.67713C33.3241 7.79528 33.8527 9.75597 34.8799 11.5592Z" fill="#0CB502"/>
<path d="M23.8466 19.2914L24.8476 23.5708C24.8588 23.627 24.8157 23.6607 24.7183 23.672L24.5046 23.7001C24.4377 23.7087 24.3702 23.6919 24.3158 23.6533C24.2614 23.6146 24.2244 23.5569 24.2122 23.492C23.498 19.8931 22.1596 17.6493 20.9674 14.6071C20.7125 13.966 20.6975 13.548 20.9225 13.353C21.2224 13.0906 21.4792 13.1281 21.6929 13.4655C23.0594 15.6305 24.1728 18.4985 26.5234 19.7019C26.6354 19.7596 26.7592 19.791 26.8853 19.7936C27.0114 19.7963 27.1366 19.77 27.2514 19.717C27.3663 19.6639 27.4677 19.5854 27.5481 19.4873C27.6285 19.3892 27.6857 19.2741 27.7155 19.1508C28.8102 14.6296 27.5881 10.8787 24.0491 7.89834C22.6039 6.68369 22.0753 7.59468 20.7481 8.14577C20.5307 8.23575 20.4595 8.16827 20.5345 7.94333C20.6169 7.6884 20.7781 7.48034 21.0181 7.31913C23.0931 5.93015 25.2581 7.44847 26.5684 9.11862C29.0202 12.2621 29.8637 16.0354 28.0023 19.5781C27.9124 19.7506 27.7774 19.8687 27.5974 19.9324C26.3753 20.371 25.3425 20.0543 24.499 18.9821C24.4467 18.9171 24.374 18.8716 24.2927 18.853C24.2114 18.8343 24.1262 18.8436 24.0508 18.8794C23.9754 18.9151 23.9143 18.9752 23.8772 19.0499C23.8402 19.1247 23.8294 19.2097 23.8466 19.2914Z" fill="#0CB502"/>
<path d="M30.4487 8.22997C30.3082 9.41089 30.5275 13.516 32.5575 13.3585C32.67 13.3473 32.6962 13.3904 32.6362 13.4879L32.4619 13.769C32.392 13.8823 32.2967 13.9777 32.1834 14.0477C32.0701 14.1176 31.9419 14.1603 31.8089 14.1723C31.6759 14.1843 31.5418 14.1653 31.417 14.1168C31.2922 14.0683 31.1802 13.9916 31.0898 13.8927C29.4215 12.0558 28.9529 10.0032 29.684 7.73512C29.8414 7.24026 30.2182 6.99471 30.8143 6.99846C30.8778 6.99993 30.9393 7.02092 30.9905 7.05858C31.0416 7.09624 31.0799 7.14875 31.1002 7.20896C31.1205 7.26916 31.1217 7.33415 31.1038 7.39509C31.0858 7.45602 31.0495 7.50996 30.9998 7.54955L30.6906 7.79698C30.5481 7.9057 30.4675 8.05002 30.4487 8.22997Z" fill="#0CB502"/>
<path d="M206.326 57.9409C206.275 57.911 206.217 57.8927 206.157 57.8871C206.098 57.8816 206.037 57.8888 205.98 57.9085C205.923 57.9282 205.871 57.9598 205.827 58.0013C205.783 58.0427 205.748 58.0931 205.725 58.1489C203.256 64.1041 200.354 70.3011 195.917 75.0529C191.616 79.6584 185.452 80.8 183.079 73.4108C180.97 66.8708 181.437 59.5098 182.202 52.4018C182.243 52.0007 182.065 51.8151 181.668 51.8451C178.822 52.0644 176.646 52.548 173.84 51.7608C173.748 51.7354 173.652 51.7288 173.558 51.7413C173.464 51.7539 173.373 51.7853 173.292 51.8336C173.21 51.882 173.14 51.9463 173.084 52.0227C173.028 52.0991 172.989 52.186 172.968 52.2781C171.073 60.6626 164.854 80.4513 153.731 80.8956C143.429 81.3061 143.131 68.6478 143.344 61.6411C143.378 60.5614 143.043 60.432 142.338 61.2531C141.487 62.239 140.411 63.3243 139.11 64.509C134.808 68.4285 127.908 70.3573 123.87 64.9814C122.198 62.7583 121.173 60.5389 120.794 58.3233C120.555 56.9399 120.11 56.8706 119.462 58.1152C117.049 62.7489 112.275 68.8728 107.276 70.661C101.09 72.8766 95.6579 69.8456 93.1611 63.9298C91.6315 60.3046 90.9961 56.4057 91.2547 52.2331C91.2602 52.1479 91.2453 52.0626 91.2114 51.9843C91.1774 51.9059 91.1254 51.8367 91.0595 51.7824C90.9937 51.7281 90.9158 51.6901 90.8325 51.6717C90.7491 51.6533 90.6626 51.6549 90.5799 51.6764C87.8882 52.37 85.1852 52.3962 82.471 51.7551C82.261 51.7064 82.0961 51.772 81.9761 51.9519C81.4532 52.7448 81.3294 53.8527 81.1101 54.6062C78.6358 63.1819 72.6188 82.2002 60.7872 80.8337C52.2508 79.844 51.846 68.4229 52.0765 61.9729C52.0915 61.6017 52.0465 61.2999 51.9415 61.0675C51.908 60.9903 51.8547 60.9234 51.787 60.8734C51.7193 60.8234 51.6395 60.7921 51.5555 60.7824C51.4714 60.7728 51.3861 60.7852 51.3078 60.8184C51.2296 60.8516 51.1612 60.9045 51.1093 60.9719C48.3876 64.5709 44.8448 67.5625 40.2168 68.2373C35.8418 68.8784 32.479 66.0779 30.8482 62.2596C29.0037 57.924 28.79 54.9661 28.3739 50.9341C28.0477 47.7456 28.537 44.7765 28.7169 41.5936C28.8856 38.6207 29.6673 34.8643 31.0619 30.3244C32.7039 24.9746 35.2457 20.1929 38.6872 15.9791C40.3067 13.9996 43.5233 14.0446 45.604 14.4158C48.2076 14.8769 52.7063 16.7045 51.4017 20.101C47.5665 30.1163 45.4015 41.3631 44.1588 51.9857C43.9901 53.4534 43.8663 56.2651 44.9573 57.4235C45.0199 57.4896 45.0977 57.5395 45.1839 57.5689C45.2701 57.5983 45.3622 57.6063 45.4521 57.5922C49.889 56.9005 54.877 41.5824 55.9173 37.6741C56.0747 37.0931 56.6221 36.8044 57.5593 36.8081C60.7459 36.8119 63.6551 37.691 66.2868 39.4455C66.9429 39.8841 67.1828 40.4971 67.0066 41.2844C65.687 47.1777 64.8379 53.1366 64.4592 59.1611C64.3074 61.5623 64.3749 65.7743 65.9607 67.7537C70.3413 73.2028 75.5823 49.9838 75.9085 48.5104C75.9543 48.3019 75.9549 48.0856 75.9103 47.8762C75.8657 47.6668 75.7769 47.4689 75.6498 47.2958C68.7724 37.9497 69.4922 23.4076 73.3948 13.173C74.3845 10.5806 77.1456 5.5814 80.6827 7.47649C84.934 9.75396 85.3952 22.1479 85.2602 25.8425C85.0015 32.8305 84.2592 39.6592 83.0333 46.3285C83.0012 46.5008 83.0288 46.6791 83.1115 46.8343C83.1942 46.9895 83.3272 47.1125 83.4888 47.1833C85.0259 47.8506 86.5686 48.1487 88.1169 48.0774C88.9548 48.0381 89.742 47.5713 90.6699 47.5826C90.9071 47.586 91.1375 47.5022 91.3177 47.3469C91.4979 47.1915 91.6155 46.9754 91.6484 46.7391C92.5594 40.0641 94.865 32.7143 99.8417 27.9175C103.868 24.0262 110.841 25.6626 113.456 30.2288C117.218 36.7913 113.023 47.0765 104.374 45.3276C104.208 45.2934 104.035 45.3249 103.892 45.4151C103.75 45.5054 103.648 45.6475 103.609 45.8112C102.811 49.084 99.15 67.0058 107.18 64.897C113.192 63.3225 116.751 55.579 119.023 50.6305C119.394 49.8282 119.585 48.9209 119.597 47.9087C119.749 37.2524 122.881 24.4029 130.096 16.1421C132.694 13.1674 137.653 14.4383 140.758 16.0072C142.968 17.1262 143.176 18.2734 142.394 20.6071C139.177 30.2644 136.971 40.1466 135.775 50.2537C135.511 52.4637 135.55 54.4712 135.68 56.6531C135.689 56.8128 135.733 56.9684 135.81 57.1089C135.886 57.2494 135.992 57.3713 136.121 57.4659C136.25 57.5604 136.399 57.6253 136.555 57.6559C136.712 57.6865 136.874 57.682 137.029 57.6428C140.999 56.6475 145.931 42.1616 146.898 38.4783C147.269 37.0724 148.124 36.5551 149.502 36.6563C152.715 36.8812 155.463 37.8335 157.746 39.513C158.409 40.0022 158.527 41.0144 158.342 41.8579C157.06 47.6388 156.284 52.3287 156.014 55.9277C155.749 59.4592 155.412 64.2391 156.79 66.8371C161.187 75.1485 166.906 49.7813 167.182 48.5892C167.279 48.1618 167.202 47.7738 166.951 47.4251C161.845 40.4802 161.052 30.6336 162.312 22.3954C162.936 18.324 165.169 8.01072 169.853 7.13909C174.689 6.23935 175.831 15.3324 176.044 18.2622C176.738 27.6682 176.181 37.0106 174.374 46.2892C174.288 46.7278 174.451 47.0334 174.863 47.2058C177.416 48.2705 179.889 48.3192 182.281 47.352C182.952 47.0821 183.336 46.6997 183.434 46.2048C184.845 39.1475 190.541 20.5959 200.754 21.9061C206.276 22.6091 208.93 29.9757 209.852 34.7219C209.957 35.2729 210.287 35.5054 210.842 35.4192C212.158 35.2111 217.686 34.75 218.405 36.3301C218.537 36.6188 218.58 37.1287 218.535 37.8597C218.017 46.441 217.343 54.9042 217.618 63.5137C217.641 64.2372 217.811 64.8164 218.13 65.2513C218.188 65.3304 218.266 65.3935 218.355 65.4348C218.444 65.4761 218.542 65.4942 218.64 65.4875C218.739 65.4807 218.833 65.4494 218.916 65.3963C218.999 65.3432 219.067 65.2702 219.114 65.1838C221.403 60.9494 222.449 55.7984 223.534 50.9454C223.845 49.5395 224.719 48.8553 226.154 48.8928L226.632 48.9041C226.829 48.9086 227.023 48.9547 227.201 49.0391C227.378 49.1236 227.536 49.2446 227.664 49.3942C227.792 49.5439 227.887 49.7188 227.943 49.9076C227.999 50.0964 228.014 50.2948 227.988 50.4899C227.11 57.103 225.238 65.3806 221.178 70.5204C218.102 74.4174 211.905 74.8223 209.172 70.2111C207.007 66.5503 206.495 62.4902 206.439 58.3176C206.435 58.104 206.398 57.9784 206.326 57.9409ZM78.4671 36.3189C79.2844 31.9664 79.8655 27.5801 80.2104 23.1601C80.3847 20.8995 81.0258 15.5967 79.8617 13.7128C79.7809 13.5818 79.6693 13.4723 79.5368 13.3939C79.4042 13.3155 79.2546 13.2705 79.1008 13.2628C78.9469 13.255 78.7936 13.2848 78.6538 13.3495C78.514 13.4141 78.3921 13.5118 78.2984 13.6341C77.8635 14.2002 77.5411 14.9013 77.3312 15.7373C75.4717 23.1751 75.4605 30.6168 77.2975 38.0622C77.3724 38.3546 77.4174 38.512 77.4324 38.5345C77.8111 39.1568 78.0454 39.1062 78.1353 38.3827C78.2216 37.7304 78.3322 37.0424 78.4671 36.3189ZM168.981 38.7145C168.989 38.7314 169.001 38.7462 169.016 38.7572C169.031 38.7681 169.048 38.7748 169.066 38.7766C169.084 38.7783 169.102 38.775 169.118 38.7671C169.134 38.7591 169.147 38.7467 169.156 38.7313C169.354 38.3977 169.489 38.0359 169.561 37.646C170.543 32.1988 171.259 26.716 171.709 21.1976C171.866 19.235 172.327 15.2761 171.028 13.6454C170.934 13.5275 170.812 13.4345 170.674 13.3747C170.535 13.3149 170.384 13.2899 170.233 13.3022C170.083 13.3144 169.938 13.3633 169.811 13.4447C169.684 13.5262 169.578 13.6375 169.504 13.7691C168.773 15.0568 168.256 16.4008 167.986 17.9416C166.895 24.223 166.49 32.7087 168.981 38.7145ZM201.811 53.7121C203.655 49.8657 205.359 45.9518 206.922 41.9704C207.406 40.7445 207.614 39.6086 207.547 38.5626C207.384 36.0265 206.596 32.8268 204.842 31.1116C204.467 30.748 204.043 30.6786 203.571 30.9036C199.443 32.883 196.052 51.4515 195.417 55.9221C195.132 57.9315 195.087 59.8997 195.282 61.8266C195.299 61.9915 195.363 62.1482 195.467 62.2773C195.571 62.4064 195.71 62.5023 195.868 62.5531C196.025 62.604 196.193 62.6075 196.352 62.5634C196.511 62.5192 196.653 62.4293 196.761 62.3046C198.982 59.7629 199.994 57.5135 201.811 53.7121ZM109.137 31.4209C107.118 33.9346 105.594 37.7416 104.824 41.1438C104.786 41.3125 104.837 41.4474 104.976 41.5487C109.879 45.1251 112.292 32.5006 109.801 31.2747C109.69 31.2204 109.564 31.2053 109.443 31.2319C109.323 31.2584 109.215 31.3251 109.137 31.4209Z" fill="#0CB502"/>
<path d="M15.7943 27.7097C19.7475 28.3957 18.3136 19.3702 14.6246 21.1696C14.3509 21.3009 14.2516 21.2202 14.3266 20.9278C14.5853 19.8931 15.9292 19.7357 16.6715 20.3093C17.71 21.1078 18.3548 22.1556 18.606 23.4527C18.6885 23.8651 18.5929 24.8417 18.3192 26.3825C18.053 27.8709 17.1683 28.5325 15.6649 28.3676C9.83348 27.7265 8.09022 17.4919 11.6105 13.7749C13.8936 11.3681 16.0473 13.7692 17.352 15.8387C18.3754 17.4657 20.0287 20.0843 22.3118 23.6945C22.9116 24.6393 23.5714 25.1191 24.2912 25.1341C24.6024 25.1379 24.6961 25.2822 24.5724 25.5671L24.4431 25.8708C24.3156 26.1745 24.0944 26.2757 23.7795 26.1745C22.3737 25.719 21.0072 23.897 20.2143 22.553C18.426 19.5389 16.8965 16.6934 14.5459 14.0392C13.0669 12.369 11.5317 14.0448 11.0256 15.5519C10.5645 16.9127 10.6545 19.567 10.7726 20.641C11.0032 22.6767 13.275 27.2767 15.7943 27.7097Z" fill="#0CB502"/>
<path d="M16.2627 33.9553C16.2214 33.9847 16.1347 33.9467 16.0218 33.8497C15.9089 33.7527 15.779 33.6047 15.6606 33.4381C15.5423 33.2716 15.4452 33.1002 15.3907 32.9616C15.3362 32.8231 15.3288 32.7288 15.3702 32.6994C15.4115 32.67 15.4982 32.708 15.6111 32.805C15.724 32.902 15.8539 33.05 15.9723 33.2166C16.0906 33.3831 16.1877 33.5545 16.2422 33.6931C16.2967 33.8316 16.3041 33.9259 16.2627 33.9553Z" fill="#0CB502"/>
<path d="M16.0642 37.1907C16.1601 37.1813 16.2514 37.1446 16.3272 37.085C16.403 37.0255 16.4602 36.9455 16.4921 36.8545C16.524 36.7636 16.5292 36.6654 16.5072 36.5715C16.4852 36.4777 16.4369 36.392 16.3678 36.3247C14.8439 34.8064 13.1794 35.5881 11.7285 35.0313C11.2112 34.8327 10.9188 34.4259 10.8513 33.8111C10.8363 33.6986 10.8794 33.6686 10.9806 33.7211C13.1231 34.8908 15.6199 33.2993 17.1495 36.2235C17.1912 36.305 17.2125 36.3952 17.2115 36.4863C17.2106 36.5775 17.1873 36.6668 17.1439 36.7465L16.3004 38.2536C16.2563 38.3319 16.1915 38.3971 16.1124 38.4426C16.0334 38.4881 15.943 38.5121 15.8505 38.5122C15.0295 38.5122 14.4971 38.1355 14.2534 37.3819C14.1672 37.1195 14.2591 37.0202 14.529 37.0839C15.0313 37.2076 15.5431 37.2432 16.0642 37.1907Z" fill="#0CB502"/>
<path d="M5.96854 34.6859C5.92092 34.8599 5.78953 35.0034 5.60328 35.0847C5.41703 35.1661 5.19118 35.1786 4.9754 35.1196C4.75962 35.0606 4.57159 34.9348 4.45269 34.77C4.33378 34.6052 4.29374 34.4148 4.34136 34.2407C4.38898 34.0666 4.52036 33.9232 4.70661 33.8418C4.89286 33.7605 5.11872 33.7479 5.3345 33.807C5.55028 33.866 5.7383 33.9918 5.8572 34.1566C5.9761 34.3214 6.01616 34.5118 5.96854 34.6859Z" fill="#0CB502"/>
<path d="M15.6482 41.9199C15.6857 41.7849 15.6726 41.6574 15.6089 41.5375C15.5039 41.3538 15.5526 41.2938 15.7551 41.3575C16.0625 41.4588 16.2462 41.6612 16.3062 41.9649C16.3254 42.0596 16.3232 42.1572 16.2999 42.2507C16.2765 42.3441 16.2326 42.4309 16.1712 42.5047L15.3727 43.4663C15.2302 43.6313 15.1834 43.8206 15.2321 44.0343L15.2827 44.248C15.3315 44.4766 15.2846 44.4991 15.1421 44.3154C14.248 43.202 11.3295 42.2292 9.96299 41.8749C9.77929 41.8299 9.61996 41.7399 9.48499 41.605C8.45029 40.5553 7.32936 39.6049 6.1222 38.7539C5.83728 38.5552 5.68545 38.2797 5.66671 37.9273C5.65878 37.7888 5.7013 37.6523 5.78625 37.5435C5.87119 37.4348 5.99269 37.3612 6.12782 37.3368L6.39775 37.2918C6.45882 37.2812 6.52146 37.2838 6.58134 37.2995C6.64122 37.3151 6.69691 37.3435 6.74452 37.3825C6.79214 37.4216 6.83055 37.4704 6.85709 37.5256C6.88363 37.5808 6.89767 37.6411 6.89824 37.7023C6.90573 38.2722 7.13442 38.7258 7.58429 39.0632C7.66136 39.1212 7.75229 39.1579 7.84801 39.1698C7.94373 39.1816 8.04089 39.1681 8.12976 39.1307L9.3894 38.5852C9.43216 38.5669 9.47815 38.5573 9.52467 38.557C9.57119 38.5567 9.61729 38.5658 9.66026 38.5836C9.70323 38.6014 9.7422 38.6277 9.77487 38.6608C9.80755 38.6939 9.83327 38.7332 9.85052 38.7764L10.3791 40.0923C10.4466 40.261 10.5591 40.3884 10.7165 40.4747C11.695 41.0201 13.86 42.7015 15.2996 42.2685C15.4795 42.216 15.5958 42.0998 15.6482 41.9199Z" fill="#0CB502"/>
<path d="M14.9282 47.6558C14.9305 47.6196 14.9256 47.5833 14.9139 47.549C14.9021 47.5147 14.8836 47.483 14.8596 47.4559C14.8356 47.4287 14.8064 47.4065 14.7738 47.3907C14.7412 47.3748 14.7058 47.3655 14.6696 47.3634C12.6339 47.2696 11.0312 46.3755 9.86155 44.681C9.73783 44.5048 9.71722 44.3155 9.7997 44.113L10.1596 43.1852C10.2496 42.9565 10.3789 42.9284 10.5476 43.1008C10.6976 43.2508 10.6451 43.4082 10.3901 43.5732C10.3092 43.6252 10.2436 43.6977 10.2001 43.7836C10.1566 43.8694 10.1367 43.9654 10.1424 44.0619C10.1481 44.1583 10.1792 44.2519 10.2326 44.3329C10.286 44.414 10.3597 44.4798 10.4464 44.5236L14.2815 46.4074C14.4444 46.4883 14.6306 46.5095 14.8082 46.4675C14.9858 46.4254 15.1436 46.3226 15.2544 46.1768C16.3116 44.786 17.6968 43.9087 19.4101 43.5451C19.4813 43.5301 19.5282 43.5582 19.5507 43.6294L19.6181 43.8487C19.6444 43.9387 19.6125 43.995 19.5226 44.0174C15.5018 44.9903 15.3275 48.758 15.5581 52.0477C15.5727 52.2698 15.6557 52.482 15.7956 52.6551C15.9356 52.8283 16.1256 52.9539 16.3397 53.0149C18.4803 53.6335 19.7775 55.0393 20.2311 57.2324C20.2461 57.3074 20.218 57.358 20.1467 57.3843L20.0174 57.4405C19.9949 57.448 19.978 57.4405 19.9668 57.418C19.1795 55.821 18.0286 54.5444 16.514 53.5885C16.444 53.5439 16.3632 53.5191 16.2803 53.5167C16.1973 53.5142 16.1152 53.5342 16.0426 53.5745C15.9701 53.6148 15.9098 53.6739 15.868 53.7457C15.8263 53.8174 15.8047 53.8991 15.8055 53.9821C15.7942 56.0553 16.6771 57.598 18.4541 58.6102C18.6565 58.7226 18.6434 58.792 18.4147 58.8182C16.4184 59.0488 14.8495 55.0056 14.6583 53.5322C14.6479 53.4429 14.6151 53.3577 14.5629 53.2849C14.5108 53.212 14.441 53.154 14.3603 53.1161C13.1625 52.5425 12.5327 52.3063 11.0143 52.2501C10.154 52.222 9.38918 51.8227 8.59066 51.7496C6.17635 51.5247 4.41247 51.2323 3.29904 50.8724C1.9438 50.4281 -0.721685 48.8929 0.183682 47.2509C0.434861 46.7935 0.890352 46.4955 1.55016 46.3568C4.33375 45.7776 8.88871 47.9313 10.019 50.6306C10.0988 50.823 10.244 50.9821 10.4295 51.0804C11.6292 51.7178 12.9113 52.072 14.2759 52.1433C14.3225 52.1463 14.3692 52.1401 14.4133 52.1251C14.4575 52.1101 14.4982 52.0864 14.5332 52.0556C14.5682 52.0248 14.5968 51.9874 14.6173 51.9455C14.6378 51.9036 14.6498 51.858 14.6527 51.8115L14.9282 47.6558ZM2.66922 46.8741C2.02441 46.8404 1.56516 46.936 1.29149 47.1609C1.15533 47.2705 1.04896 47.4125 0.982187 47.574C0.915417 47.7355 0.890405 47.9112 0.909457 48.0849C0.928509 48.2586 0.99101 48.4248 1.09119 48.5679C1.19138 48.7111 1.32602 48.8268 1.48269 48.9042C3.85576 50.0813 6.37504 50.8161 9.04054 51.1085C9.09679 51.1149 9.15375 51.108 9.20679 51.0882C9.25984 51.0684 9.30747 51.0364 9.34583 50.9948C9.38418 50.9531 9.41216 50.903 9.42751 50.8485C9.44286 50.794 9.44515 50.7367 9.43417 50.6812C9.04616 48.713 4.42372 46.9529 2.66922 46.8741Z" fill="#0CB502"/>
<path d="M5.52579 55.5735C7.39651 57.0243 9.01043 56.8481 10.3675 55.0449C10.4875 54.8837 10.5812 54.8968 10.6487 55.0843C10.7649 55.4142 10.7012 55.701 10.4575 55.9447C8.74051 57.6429 7.04411 57.5773 5.36834 55.7478C5.3196 55.6953 5.3196 55.6429 5.36834 55.5904V55.5848C5.41708 55.5323 5.46956 55.5285 5.52579 55.5735Z" fill="#0CB502"/>
</svg>
