<svg width="228" height="81" viewBox="0 0 228 81" fill="none" xmlns="http://www.w3.org/2000/svg">
<path d="M41.0659 0.329753C39.6544 2.38229 39.7444 5.05903 41.1333 6.95974C41.1606 6.99709 41.1795 7.0399 41.1886 7.08514C41.1977 7.13037 41.1969 7.17692 41.1862 7.22148C41.1754 7.26603 41.155 7.3075 41.1265 7.34293C41.0979 7.37836 41.0619 7.40689 41.0209 7.42648L40.8859 7.49396C40.6197 7.62143 40.3967 7.56894 40.2167 7.33651C38.6084 5.30084 38.2036 1.74685 40.5935 0.0991958C40.706 0.0204682 40.8166 -0.0113967 40.9253 0.00359905C41.1502 0.0335905 41.1971 0.142306 41.0659 0.329753Z" fill="white"/>
<path d="M42.5729 1.51613C42.7585 3.14129 42.8653 4.00167 43.7594 5.45251C43.7827 5.49069 43.7975 5.53338 43.8029 5.57764C43.8084 5.6219 43.8043 5.66668 43.7909 5.7089C43.7775 5.75112 43.7552 5.78978 43.7255 5.82221C43.6958 5.85464 43.6594 5.88007 43.6189 5.89676C41.392 6.80213 41.5888 2.05598 41.8475 0.998778C41.8962 0.803834 42.0087 0.755097 42.1849 0.852569C42.4098 0.976284 42.5392 1.19747 42.5729 1.51613Z" fill="white"/>
<path d="M37.56 4.70486C37.4299 4.74839 37.2615 4.6598 37.0919 4.45856C36.9222 4.25732 36.7652 3.95993 36.6554 3.6318C36.6011 3.46932 36.56 3.30419 36.5344 3.14583C36.5088 2.98747 36.4993 2.83899 36.5064 2.70886C36.5136 2.57873 36.5372 2.46951 36.5759 2.38742C36.6146 2.30534 36.6677 2.252 36.7322 2.23045C36.8623 2.18692 37.0307 2.27551 37.2003 2.47675C37.37 2.67799 37.5269 2.97538 37.6367 3.30351C37.6911 3.46598 37.7322 3.63112 37.7578 3.78948C37.7834 3.94784 37.7929 4.09632 37.7857 4.22645C37.7786 4.35658 37.755 4.4658 37.7163 4.54789C37.6776 4.62998 37.6245 4.68331 37.56 4.70486Z" fill="white"/>
<path d="M37.2082 9.38915C37.2286 9.41911 37.2392 9.4547 37.2384 9.49095C37.2376 9.52721 37.2256 9.56232 37.2039 9.59141C37.1823 9.62049 37.1521 9.6421 37.1176 9.65321C37.0831 9.66433 37.0459 9.66442 37.0114 9.65345L36.1173 9.36103C35.7349 9.23356 35.5006 8.97113 35.4143 8.57375L34.4752 4.08065C34.4382 3.90747 34.468 3.72656 34.5585 3.57356C34.6491 3.42056 34.7939 3.30656 34.9645 3.25401L35.1388 3.19778C35.1935 3.18138 35.2514 3.17823 35.3075 3.1886C35.3636 3.19898 35.4163 3.22258 35.461 3.25738C35.5058 3.29218 35.5412 3.33716 35.5645 3.38847C35.5877 3.43978 35.5979 3.4959 35.5943 3.55205C35.4781 5.6852 36.016 7.6309 37.2082 9.38915Z" fill="white"/>
<path d="M34.8799 11.0592C34.9399 11.1642 34.9118 11.2335 34.7956 11.2673L33.4122 11.6778C33.3335 11.7003 33.2904 11.6703 33.2829 11.5878C33.0748 9.36094 32.4394 7.59519 32.5575 5.32334C32.565 5.21087 32.6175 5.12839 32.7149 5.07591L32.923 4.96344C33.1667 4.83223 33.2904 4.90346 33.2941 5.17713C33.3241 7.29528 33.8527 9.25597 34.8799 11.0592Z" fill="white"/>
<path d="M23.8466 18.7914L24.8476 23.0708C24.8588 23.127 24.8157 23.1607 24.7183 23.172L24.5046 23.2001C24.4377 23.2087 24.3702 23.1919 24.3158 23.1533C24.2614 23.1146 24.2244 23.0569 24.2122 22.992C23.498 19.3931 22.1596 17.1493 20.9674 14.1071C20.7125 13.466 20.6975 13.048 20.9225 12.853C21.2224 12.5906 21.4792 12.6281 21.6929 12.9655C23.0594 15.1305 24.1728 17.9985 26.5234 19.2019C26.6354 19.2596 26.7592 19.291 26.8853 19.2936C27.0114 19.2963 27.1366 19.27 27.2514 19.217C27.3663 19.1639 27.4677 19.0854 27.5481 18.9873C27.6285 18.8892 27.6857 18.7741 27.7155 18.6508C28.8102 14.1296 27.5881 10.3787 24.0491 7.39834C22.6039 6.18369 22.0753 7.09468 20.7481 7.64577C20.5307 7.73575 20.4595 7.66827 20.5345 7.44333C20.6169 7.1884 20.7781 6.98034 21.0181 6.81913C23.0931 5.43015 25.2581 6.94847 26.5684 8.61862C29.0202 11.7621 29.8637 15.5354 28.0023 19.0781C27.9124 19.2506 27.7774 19.3687 27.5974 19.4324C26.3753 19.871 25.3425 19.5543 24.499 18.4821C24.4467 18.4171 24.374 18.3716 24.2927 18.353C24.2114 18.3343 24.1262 18.3436 24.0508 18.3794C23.9754 18.4151 23.9143 18.4752 23.8772 18.5499C23.8402 18.6247 23.8294 18.7097 23.8466 18.7914Z" fill="white"/>
<path d="M30.4487 7.72997C30.3082 8.91089 30.5275 13.016 32.5575 12.8585C32.67 12.8473 32.6962 12.8904 32.6362 12.9879L32.4619 13.269C32.392 13.3823 32.2967 13.4777 32.1834 13.5477C32.0701 13.6176 31.9419 13.6603 31.8089 13.6723C31.6759 13.6843 31.5418 13.6653 31.417 13.6168C31.2922 13.5683 31.1802 13.4916 31.0898 13.3927C29.4215 11.5558 28.9529 9.50322 29.684 7.23512C29.8414 6.74026 30.2182 6.49471 30.8143 6.49846C30.8778 6.49993 30.9393 6.52092 30.9905 6.55858C31.0416 6.59624 31.0799 6.64875 31.1002 6.70896C31.1205 6.76916 31.1217 6.83415 31.1038 6.89509C31.0858 6.95602 31.0495 7.00996 30.9998 7.04955L30.6906 7.29698C30.5481 7.4057 30.4675 7.55002 30.4487 7.72997Z" fill="white"/>
<path d="M206.326 57.4409C206.275 57.411 206.217 57.3927 206.157 57.3871C206.098 57.3816 206.037 57.3888 205.98 57.4085C205.923 57.4282 205.871 57.4598 205.827 57.5013C205.783 57.5427 205.748 57.5931 205.725 57.6489C203.256 63.6041 200.354 69.8011 195.917 74.5529C191.616 79.1584 185.452 80.3 183.079 72.9108C180.97 66.3708 181.437 59.0098 182.202 51.9018C182.243 51.5007 182.065 51.3151 181.668 51.3451C178.822 51.5644 176.646 52.048 173.84 51.2608C173.748 51.2354 173.652 51.2288 173.558 51.2413C173.464 51.2539 173.373 51.2853 173.292 51.3336C173.21 51.382 173.14 51.4463 173.084 51.5227C173.028 51.5991 172.989 51.686 172.968 51.7781C171.073 60.1626 164.854 79.9513 153.731 80.3956C143.429 80.8061 143.131 68.1478 143.344 61.1411C143.378 60.0614 143.043 59.932 142.338 60.7531C141.487 61.739 140.411 62.8243 139.11 64.009C134.808 67.9285 127.908 69.8573 123.87 64.4814C122.198 62.2583 121.173 60.0389 120.794 57.8233C120.555 56.4399 120.11 56.3706 119.462 57.6152C117.049 62.2489 112.275 68.3728 107.276 70.161C101.09 72.3766 95.6579 69.3456 93.1611 63.4298C91.6315 59.8046 90.9961 55.9057 91.2547 51.7331C91.2602 51.6479 91.2453 51.5626 91.2114 51.4843C91.1774 51.4059 91.1254 51.3367 91.0595 51.2824C90.9937 51.2281 90.9158 51.1901 90.8325 51.1717C90.7491 51.1533 90.6626 51.1549 90.5799 51.1764C87.8882 51.87 85.1852 51.8962 82.471 51.2551C82.261 51.2064 82.0961 51.272 81.9761 51.4519C81.4532 52.2448 81.3294 53.3527 81.1101 54.1062C78.6358 62.6819 72.6188 81.7002 60.7872 80.3337C52.2508 79.344 51.846 67.9229 52.0765 61.4729C52.0915 61.1017 52.0465 60.7999 51.9415 60.5675C51.908 60.4903 51.8547 60.4234 51.787 60.3734C51.7193 60.3234 51.6395 60.2921 51.5555 60.2824C51.4714 60.2728 51.3861 60.2852 51.3078 60.3184C51.2296 60.3516 51.1612 60.4045 51.1093 60.4719C48.3876 64.0709 44.8448 67.0625 40.2168 67.7373C35.8418 68.3784 32.479 65.5779 30.8482 61.7596C29.0037 57.424 28.79 54.4661 28.3739 50.4341C28.0477 47.2456 28.537 44.2765 28.7169 41.0936C28.8856 38.1207 29.6673 34.3643 31.0619 29.8244C32.7039 24.4746 35.2457 19.6929 38.6872 15.4791C40.3067 13.4996 43.5233 13.5446 45.604 13.9158C48.2076 14.3769 52.7063 16.2045 51.4017 19.601C47.5665 29.6163 45.4015 40.8631 44.1588 51.4857C43.9901 52.9534 43.8663 55.7651 44.9573 56.9235C45.0199 56.9896 45.0977 57.0395 45.1839 57.0689C45.2701 57.0983 45.3622 57.1063 45.4521 57.0922C49.889 56.4005 54.877 41.0824 55.9173 37.1741C56.0747 36.5931 56.6221 36.3044 57.5593 36.3081C60.7459 36.3119 63.6551 37.191 66.2868 38.9455C66.9429 39.3841 67.1828 39.9971 67.0066 40.7844C65.687 46.6777 64.8379 52.6366 64.4592 58.6611C64.3074 61.0623 64.3749 65.2743 65.9607 67.2537C70.3413 72.7028 75.5823 49.4838 75.9085 48.0104C75.9543 47.8019 75.9549 47.5856 75.9103 47.3762C75.8657 47.1668 75.7769 46.9689 75.6498 46.7958C68.7724 37.4497 69.4922 22.9076 73.3948 12.673C74.3845 10.0806 77.1456 5.0814 80.6827 6.97649C84.934 9.25396 85.3952 21.6479 85.2602 25.3425C85.0015 32.3305 84.2592 39.1592 83.0333 45.8285C83.0012 46.0008 83.0288 46.1791 83.1115 46.3343C83.1942 46.4895 83.3272 46.6125 83.4888 46.6833C85.0259 47.3506 86.5686 47.6487 88.1169 47.5774C88.9548 47.5381 89.742 47.0713 90.6699 47.0826C90.9071 47.086 91.1375 47.0022 91.3177 46.8469C91.4979 46.6915 91.6155 46.4754 91.6484 46.2391C92.5594 39.5641 94.865 32.2143 99.8417 27.4175C103.868 23.5262 110.841 25.1626 113.456 29.7288C117.218 36.2913 113.023 46.5765 104.374 44.8276C104.208 44.7934 104.035 44.8249 103.892 44.9151C103.75 45.0054 103.648 45.1475 103.609 45.3112C102.811 48.584 99.15 66.5058 107.18 64.397C113.192 62.8225 116.751 55.079 119.023 50.1305C119.394 49.3282 119.585 48.4209 119.597 47.4087C119.749 36.7524 122.881 23.9029 130.096 15.6421C132.694 12.6674 137.653 13.9383 140.758 15.5072C142.968 16.6262 143.176 17.7734 142.394 20.1071C139.177 29.7644 136.971 39.6466 135.775 49.7537C135.511 51.9637 135.55 53.9712 135.68 56.1531C135.689 56.3128 135.733 56.4684 135.81 56.6089C135.886 56.7494 135.992 56.8713 136.121 56.9659C136.25 57.0604 136.399 57.1253 136.555 57.1559C136.712 57.1865 136.874 57.182 137.029 57.1428C140.999 56.1475 145.931 41.6616 146.898 37.9783C147.269 36.5724 148.124 36.0551 149.502 36.1563C152.715 36.3812 155.463 37.3335 157.746 39.013C158.409 39.5022 158.527 40.5144 158.342 41.3579C157.06 47.1388 156.284 51.8287 156.014 55.4277C155.749 58.9592 155.412 63.7391 156.79 66.3371C161.187 74.6485 166.906 49.2813 167.182 48.0892C167.279 47.6618 167.202 47.2738 166.951 46.9251C161.845 39.9802 161.052 30.1336 162.312 21.8954C162.936 17.824 165.169 7.51072 169.853 6.63909C174.689 5.73935 175.831 14.8324 176.044 17.7622C176.738 27.1682 176.181 36.5106 174.374 45.7892C174.288 46.2278 174.451 46.5334 174.863 46.7058C177.416 47.7705 179.889 47.8192 182.281 46.852C182.952 46.5821 183.336 46.1997 183.434 45.7048C184.845 38.6475 190.541 20.0959 200.754 21.4061C206.276 22.1091 208.93 29.4757 209.852 34.2219C209.957 34.7729 210.287 35.0054 210.842 34.9192C212.158 34.7111 217.686 34.25 218.405 35.8301C218.537 36.1188 218.58 36.6287 218.535 37.3597C218.017 45.941 217.343 54.4042 217.618 63.0137C217.641 63.7372 217.811 64.3164 218.13 64.7513C218.188 64.8304 218.266 64.8935 218.355 64.9348C218.444 64.9761 218.542 64.9942 218.64 64.9875C218.739 64.9807 218.833 64.9494 218.916 64.8963C218.999 64.8432 219.067 64.7702 219.114 64.6838C221.403 60.4494 222.449 55.2984 223.534 50.4454C223.845 49.0395 224.719 48.3553 226.154 48.3928L226.632 48.4041C226.829 48.4086 227.023 48.4547 227.201 48.5391C227.378 48.6236 227.536 48.7446 227.664 48.8942C227.792 49.0439 227.887 49.2188 227.943 49.4076C227.999 49.5964 228.014 49.7948 227.988 49.9899C227.11 56.603 225.238 64.8806 221.178 70.0204C218.102 73.9174 211.905 74.3223 209.172 69.7111C207.007 66.0503 206.495 61.9902 206.439 57.8176C206.435 57.604 206.398 57.4784 206.326 57.4409ZM78.4671 35.8189C79.2844 31.4664 79.8655 27.0801 80.2104 22.6601C80.3847 20.3995 81.0258 15.0967 79.8617 13.2128C79.7809 13.0818 79.6693 12.9723 79.5368 12.8939C79.4042 12.8155 79.2546 12.7705 79.1008 12.7628C78.9469 12.755 78.7936 12.7848 78.6538 12.8495C78.514 12.9141 78.3921 13.0118 78.2984 13.1341C77.8635 13.7002 77.5411 14.4013 77.3312 15.2373C75.4717 22.6751 75.4605 30.1168 77.2975 37.5622C77.3724 37.8546 77.4174 38.012 77.4324 38.0345C77.8111 38.6568 78.0454 38.6062 78.1353 37.8827C78.2216 37.2304 78.3322 36.5424 78.4671 35.8189ZM168.981 38.2145C168.989 38.2314 169.001 38.2462 169.016 38.2572C169.031 38.2681 169.048 38.2748 169.066 38.2766C169.084 38.2783 169.102 38.275 169.118 38.2671C169.134 38.2591 169.147 38.2467 169.156 38.2313C169.354 37.8977 169.489 37.5359 169.561 37.146C170.543 31.6988 171.259 26.216 171.709 20.6976C171.866 18.735 172.327 14.7761 171.028 13.1454C170.934 13.0275 170.812 12.9345 170.674 12.8747C170.535 12.8149 170.384 12.7899 170.233 12.8022C170.083 12.8144 169.938 12.8633 169.811 12.9447C169.684 13.0262 169.578 13.1375 169.504 13.2691C168.773 14.5568 168.256 15.9008 167.986 17.4416C166.895 23.723 166.49 32.2087 168.981 38.2145ZM201.811 53.2121C203.655 49.3657 205.359 45.4518 206.922 41.4704C207.406 40.2445 207.614 39.1086 207.547 38.0626C207.384 35.5265 206.596 32.3268 204.842 30.6116C204.467 30.248 204.043 30.1786 203.571 30.4036C199.443 32.383 196.052 50.9515 195.417 55.4221C195.132 57.4315 195.087 59.3997 195.282 61.3266C195.299 61.4915 195.363 61.6482 195.467 61.7773C195.571 61.9064 195.71 62.0023 195.868 62.0531C196.025 62.104 196.193 62.1075 196.352 62.0634C196.511 62.0192 196.653 61.9293 196.761 61.8046C198.982 59.2629 199.994 57.0135 201.811 53.2121ZM109.137 30.9209C107.118 33.4346 105.594 37.2416 104.824 40.6438C104.786 40.8125 104.837 40.9474 104.976 41.0487C109.879 44.6251 112.292 32.0006 109.801 30.7747C109.69 30.7204 109.564 30.7053 109.443 30.7319C109.323 30.7584 109.215 30.8251 109.137 30.9209Z" fill="white"/>
<path d="M15.7943 27.2097C19.7475 27.8957 18.3136 18.8702 14.6246 20.6696C14.3509 20.8009 14.2516 20.7202 14.3266 20.4278C14.5853 19.3931 15.9292 19.2357 16.6715 19.8093C17.71 20.6078 18.3548 21.6556 18.606 22.9527C18.6885 23.3651 18.5929 24.3417 18.3192 25.8825C18.053 27.3709 17.1683 28.0325 15.6649 27.8676C9.83348 27.2265 8.09022 16.9919 11.6105 13.2749C13.8936 10.8681 16.0473 13.2692 17.352 15.3387C18.3754 16.9657 20.0287 19.5843 22.3118 23.1945C22.9116 24.1393 23.5714 24.6191 24.2912 24.6341C24.6024 24.6379 24.6961 24.7822 24.5724 25.0671L24.4431 25.3708C24.3156 25.6745 24.0944 25.7757 23.7795 25.6745C22.3737 25.219 21.0072 23.397 20.2143 22.053C18.426 19.0389 16.8965 16.1934 14.5459 13.5392C13.0669 11.869 11.5317 13.5448 11.0256 15.0519C10.5645 16.4127 10.6545 19.067 10.7726 20.141C11.0032 22.1767 13.275 26.7767 15.7943 27.2097Z" fill="white"/>
<path d="M16.2627 33.4553C16.2214 33.4847 16.1347 33.4467 16.0218 33.3497C15.9089 33.2527 15.779 33.1047 15.6606 32.9381C15.5423 32.7716 15.4452 32.6002 15.3907 32.4616C15.3362 32.3231 15.3288 32.2288 15.3702 32.1994C15.4115 32.17 15.4982 32.208 15.6111 32.305C15.724 32.402 15.8539 32.55 15.9723 32.7166C16.0906 32.8831 16.1877 33.0545 16.2422 33.1931C16.2967 33.3316 16.3041 33.4259 16.2627 33.4553Z" fill="white"/>
<path d="M16.0642 36.6907C16.1601 36.6813 16.2514 36.6446 16.3272 36.585C16.403 36.5255 16.4602 36.4455 16.4921 36.3545C16.524 36.2636 16.5292 36.1654 16.5072 36.0715C16.4852 35.9777 16.4369 35.892 16.3678 35.8247C14.8439 34.3064 13.1794 35.0881 11.7285 34.5313C11.2112 34.3327 10.9188 33.9259 10.8513 33.3111C10.8363 33.1986 10.8794 33.1686 10.9806 33.2211C13.1231 34.3908 15.6199 32.7993 17.1495 35.7235C17.1912 35.805 17.2125 35.8952 17.2115 35.9863C17.2106 36.0775 17.1873 36.1668 17.1439 36.2465L16.3004 37.7536C16.2563 37.8319 16.1915 37.8971 16.1124 37.9426C16.0334 37.9881 15.943 38.0121 15.8505 38.0122C15.0295 38.0122 14.4971 37.6355 14.2534 36.8819C14.1672 36.6195 14.2591 36.5202 14.529 36.5839C15.0313 36.7076 15.5431 36.7432 16.0642 36.6907Z" fill="white"/>
<path d="M5.96854 34.1859C5.92092 34.3599 5.78953 34.5034 5.60328 34.5847C5.41703 34.6661 5.19118 34.6786 4.9754 34.6196C4.75962 34.5606 4.57159 34.4348 4.45269 34.27C4.33378 34.1052 4.29374 33.9148 4.34136 33.7407C4.38898 33.5666 4.52036 33.4232 4.70661 33.3418C4.89286 33.2605 5.11872 33.2479 5.3345 33.307C5.55028 33.366 5.7383 33.4918 5.8572 33.6566C5.9761 33.8214 6.01616 34.0118 5.96854 34.1859Z" fill="white"/>
<path d="M15.6482 41.4199C15.6857 41.2849 15.6726 41.1574 15.6089 41.0375C15.5039 40.8538 15.5526 40.7938 15.7551 40.8575C16.0625 40.9588 16.2462 41.1612 16.3062 41.4649C16.3254 41.5596 16.3232 41.6572 16.2999 41.7507C16.2765 41.8441 16.2326 41.9309 16.1712 42.0047L15.3727 42.9663C15.2302 43.1313 15.1834 43.3206 15.2321 43.5343L15.2827 43.748C15.3315 43.9766 15.2846 43.9991 15.1421 43.8154C14.248 42.702 11.3295 41.7292 9.96299 41.3749C9.77929 41.3299 9.61996 41.2399 9.48499 41.105C8.45029 40.0553 7.32936 39.1049 6.1222 38.2539C5.83728 38.0552 5.68545 37.7797 5.66671 37.4273C5.65878 37.2888 5.7013 37.1523 5.78625 37.0435C5.87119 36.9348 5.99269 36.8612 6.12782 36.8368L6.39775 36.7918C6.45882 36.7812 6.52146 36.7838 6.58134 36.7995C6.64122 36.8151 6.69691 36.8435 6.74452 36.8825C6.79214 36.9216 6.83055 36.9704 6.85709 37.0256C6.88363 37.0808 6.89767 37.1411 6.89824 37.2023C6.90573 37.7722 7.13442 38.2258 7.58429 38.5632C7.66136 38.6212 7.75229 38.6579 7.84801 38.6698C7.94373 38.6816 8.04089 38.6681 8.12976 38.6307L9.3894 38.0852C9.43216 38.0669 9.47815 38.0573 9.52467 38.057C9.57119 38.0567 9.61729 38.0658 9.66026 38.0836C9.70323 38.1014 9.7422 38.1277 9.77487 38.1608C9.80755 38.1939 9.83327 38.2332 9.85052 38.2764L10.3791 39.5923C10.4466 39.761 10.5591 39.8884 10.7165 39.9747C11.695 40.5201 13.86 42.2015 15.2996 41.7685C15.4795 41.716 15.5958 41.5998 15.6482 41.4199Z" fill="white"/>
<path d="M14.9282 47.1558C14.9305 47.1196 14.9256 47.0833 14.9139 47.049C14.9021 47.0147 14.8836 46.983 14.8596 46.9559C14.8356 46.9287 14.8064 46.9065 14.7738 46.8907C14.7412 46.8748 14.7058 46.8655 14.6696 46.8634C12.6339 46.7696 11.0312 45.8755 9.86155 44.181C9.73783 44.0048 9.71722 43.8155 9.7997 43.613L10.1596 42.6852C10.2496 42.4565 10.3789 42.4284 10.5476 42.6008C10.6976 42.7508 10.6451 42.9082 10.3901 43.0732C10.3092 43.1252 10.2436 43.1977 10.2001 43.2836C10.1566 43.3694 10.1367 43.4654 10.1424 43.5619C10.1481 43.6583 10.1792 43.7519 10.2326 43.8329C10.286 43.914 10.3597 43.9798 10.4464 44.0236L14.2815 45.9074C14.4444 45.9883 14.6306 46.0095 14.8082 45.9675C14.9858 45.9254 15.1436 45.8226 15.2544 45.6768C16.3116 44.286 17.6968 43.4087 19.4101 43.0451C19.4813 43.0301 19.5282 43.0582 19.5507 43.1294L19.6181 43.3487C19.6444 43.4387 19.6125 43.495 19.5226 43.5174C15.5018 44.4903 15.3275 48.258 15.5581 51.5477C15.5727 51.7698 15.6557 51.982 15.7956 52.1551C15.9356 52.3283 16.1256 52.4539 16.3397 52.5149C18.4803 53.1335 19.7775 54.5393 20.2311 56.7324C20.2461 56.8074 20.218 56.858 20.1467 56.8843L20.0174 56.9405C19.9949 56.948 19.978 56.9405 19.9668 56.918C19.1795 55.321 18.0286 54.0444 16.514 53.0885C16.444 53.0439 16.3632 53.0191 16.2803 53.0167C16.1973 53.0142 16.1152 53.0342 16.0426 53.0745C15.9701 53.1148 15.9098 53.1739 15.868 53.2457C15.8263 53.3174 15.8047 53.3991 15.8055 53.4821C15.7942 55.5553 16.6771 57.098 18.4541 58.1102C18.6565 58.2226 18.6434 58.292 18.4147 58.3182C16.4184 58.5488 14.8495 54.5056 14.6583 53.0322C14.6479 52.9429 14.6151 52.8577 14.5629 52.7849C14.5108 52.712 14.441 52.654 14.3603 52.6161C13.1625 52.0425 12.5327 51.8063 11.0143 51.7501C10.154 51.722 9.38918 51.3227 8.59066 51.2496C6.17635 51.0247 4.41247 50.7323 3.29904 50.3724C1.9438 49.9281 -0.721685 48.3929 0.183682 46.7509C0.434861 46.2935 0.890352 45.9955 1.55016 45.8568C4.33375 45.2776 8.88871 47.4313 10.019 50.1306C10.0988 50.323 10.244 50.4821 10.4295 50.5804C11.6292 51.2178 12.9113 51.572 14.2759 51.6433C14.3225 51.6463 14.3692 51.6401 14.4133 51.6251C14.4575 51.6101 14.4982 51.5864 14.5332 51.5556C14.5682 51.5248 14.5968 51.4874 14.6173 51.4455C14.6378 51.4036 14.6498 51.358 14.6527 51.3115L14.9282 47.1558ZM2.66922 46.3741C2.02441 46.3404 1.56516 46.436 1.29149 46.6609C1.15533 46.7705 1.04896 46.9125 0.982187 47.074C0.915417 47.2355 0.890405 47.4112 0.909457 47.5849C0.928509 47.7586 0.99101 47.9248 1.09119 48.0679C1.19138 48.2111 1.32602 48.3268 1.48269 48.4042C3.85576 49.5813 6.37504 50.3161 9.04054 50.6085C9.09679 50.6149 9.15375 50.608 9.20679 50.5882C9.25984 50.5684 9.30747 50.5364 9.34583 50.4948C9.38418 50.4531 9.41216 50.403 9.42751 50.3485C9.44286 50.294 9.44515 50.2367 9.43417 50.1812C9.04616 48.213 4.42372 46.4529 2.66922 46.3741Z" fill="white"/>
<path d="M5.52579 55.0735C7.39651 56.5243 9.01043 56.3481 10.3675 54.5449C10.4875 54.3837 10.5812 54.3968 10.6487 54.5843C10.7649 54.9142 10.7012 55.201 10.4575 55.4447C8.74051 57.1429 7.04411 57.0773 5.36834 55.2478C5.3196 55.1953 5.3196 55.1429 5.36834 55.0904V55.0848C5.41708 55.0323 5.46956 55.0285 5.52579 55.0735Z" fill="white"/>
</svg>
